<svg width="95" height="96" viewBox="0 0 95 96" fill="none" xmlns="http://www.w3.org/2000/svg">
<path d="M85.5409 43.4511C77.3619 43.4511 69.5565 43.5436 61.7697 43.4325C42.6668 43.1734 23.5826 42.8217 4.4798 42.5071C0.315638 42.433 0.0728843 42.4515 0.054211 46.6162C-0.0578292 59.0732 0.0355376 71.5117 0.054211 83.9687C0.054211 86.5416 0.128904 89.1329 0.222271 91.7058C0.259618 92.6497 0.184924 93.6493 0.390331 94.5377C0.558391 95.3522 1.00655 96 2.4444 96C3.39674 96 3.78888 95.1115 3.93827 94.4822C4.25572 93.131 4.31174 91.7058 4.31174 90.3175C4.23704 76.2502 4.125 62.1643 4.03164 48.097C4.03164 47.3566 4.03164 46.6347 4.03164 45.9128C7.97172 45.9128 11.8744 45.8203 15.7772 45.9313C36.2805 46.4496 56.7839 47.0234 77.2872 47.5787C80.1816 47.6527 83.076 47.8193 85.9703 47.8934C89.6303 47.9859 89.649 47.7823 89.6116 44.1359C89.5556 39.1938 89.817 34.2703 89.8917 29.3282C89.9478 25.7928 89.9104 22.2575 90.2652 18.6666C90.8628 20.4065 91.3669 22.1834 92.1325 23.8308C92.4687 24.5527 93.309 25.8854 93.9999 25.6077C95.1763 25.5707 95.0643 23.8863 94.8962 23.183C93.2343 16.0197 91.4603 8.87499 89.6303 1.74877C89.2382 0.323522 88.3792 0.230972 88.1551 0.156934C87.0721 -0.157731 86.3065 -0.231767 85.0367 2.24853C84.7939 2.72978 84.4204 3.24805 84.2337 3.80334C82.4784 9.04158 80.7044 14.2613 79.0612 19.5366C78.8558 20.1844 78.501 21.6282 79.6587 21.8132C80.7978 22.239 81.5074 21.0914 81.8062 20.4435C83.1693 17.5375 84.2897 14.5204 85.5595 11.4108C85.5408 22.2575 85.5409 32.9376 85.5409 43.4511Z" fill="black"/>
</svg>
