<svg width="50" height="50" viewBox="0 0 50 50" fill="none" xmlns="http://www.w3.org/2000/svg">
<path d="M30.7709 30.1042H19.3751L22.2709 27.2083C23.4182 25.977 23.3844 24.0583 22.1943 22.8683C21.0043 21.6782 19.0855 21.6443 17.8542 22.7917L9.62508 31.125C9.48199 31.2752 9.34972 31.4353 9.22924 31.6042C9.23608 31.6525 9.23608 31.7016 9.22924 31.75C9.22924 31.875 9.08341 32 9.02091 32.1458V32.3333C9.00895 32.465 9.00895 32.5975 9.02091 32.7292C8.99938 32.93 8.99938 33.1325 9.02091 33.3333C9.00044 33.5412 9.00044 33.7505 9.02091 33.9583C9.00902 34.0691 9.00902 34.1809 9.02091 34.2917V34.5417L9.20841 34.8958V35.0833C9.32906 35.2455 9.46136 35.3987 9.60424 35.5417L17.9376 43.875C18.5269 44.4555 19.3187 44.7842 20.1459 44.7917C21.409 44.7906 22.5472 44.0292 23.0304 42.8622C23.5137 41.6952 23.2468 40.352 22.3542 39.4583L19.3751 36.3542H30.7709C32.4968 36.3542 33.8959 34.9551 33.8959 33.2292C33.8959 31.5033 32.4968 30.1042 30.7709 30.1042Z" fill="black"/>
<path d="M40.8542 18.3542C40.8542 18.2292 41.0001 18.1042 41.0626 17.9583C41.0566 17.896 41.0566 17.8332 41.0626 17.7708C41.1096 17.6424 41.1445 17.5099 41.1667 17.375C41.1883 17.1742 41.1883 16.9717 41.1667 16.7708C41.1872 16.563 41.1872 16.3537 41.1667 16.1458C41.1417 16.0252 41.1069 15.9067 41.0626 15.7917V15.5625C41.0012 15.4332 40.9316 15.308 40.8542 15.1875V15.0208C40.7061 14.8628 40.5459 14.7165 40.3751 14.5833L32.1459 6.25001C30.9212 5.0428 28.954 5.0428 27.7292 6.25001C27.1389 6.8332 26.8066 7.6285 26.8066 8.45834C26.8066 9.28818 27.1389 10.0835 27.7292 10.6667L30.6251 13.5833H19.2292C17.5034 13.5833 16.1042 14.9824 16.1042 16.7083C16.1042 18.4342 17.5034 19.8333 19.2292 19.8333H30.6251L27.7292 22.7292C27.1376 23.3159 26.8049 24.1147 26.8049 24.9479C26.8049 25.7812 27.1376 26.5799 27.7292 27.1667C28.3155 27.7492 29.1112 28.0719 29.9376 28.0625C30.7623 28.0628 31.5545 27.7414 32.1459 27.1667L40.3751 18.8333C40.5182 18.6832 40.6504 18.523 40.7709 18.3542H40.8542Z" fill="black"/>
</svg>
