<svg width="233" height="103" viewBox="0 0 233 103" fill="none" xmlns="http://www.w3.org/2000/svg">
<path d="M37.222 51.0472C46.8939 51.8875 56.5785 53.0636 66.2413 53.5267C110.488 55.489 154.748 57.2852 198.978 58.9533C203.94 59.1335 208.917 58.6458 213.864 58.03C217.54 57.5966 220.74 55.9089 220.745 51.5179C220.747 47.1684 217.649 45.2681 213.955 44.9472C198.423 43.6813 182.898 42.3324 167.316 41.6477C131.525 40.0855 95.7052 38.8553 59.6328 36.6831C61.1434 36.1452 62.6576 35.5658 64.206 35.0729C73.1955 32.2153 82.2228 29.4028 91.2158 26.5037C92.7643 26.0109 94.3759 25.2726 95.7042 24.4261C98.3571 22.7745 98.5356 21.2008 98.3677 19.7642C98.1437 17.528 96.4815 16.9236 94.0216 16.8353C92.4785 16.7849 90.7007 16.5468 89.1216 16.9114C67.5494 22.1053 46.0151 27.3443 24.5078 32.753C21.8134 33.439 19.1171 34.6267 16.8107 36.1411C11.0013 39.9442 11.4765 47.4719 17.5517 50.7183C34.7826 59.8691 52.0171 68.9785 69.2516 78.0878C70.4122 78.6905 70.9266 79.028 72.8902 79.5332C74.6084 79.9752 76.8625 78.5818 77.7287 77.2768C78.4036 76.2481 77.9738 73.4922 77.0118 72.5303C75.2015 70.7419 72.718 69.4805 70.3483 68.3545C60.3512 63.5545 50.3019 58.8754 40.2561 54.1548C39.1299 53.6387 38.0596 52.9602 36.937 52.4026C35.6321 51.5364 34.7928 51.0871 37.222 51.0472Z" fill="black"/>
</svg>
