<svg width="50" height="50" viewBox="0 0 50 50" fill="none" xmlns="http://www.w3.org/2000/svg">
<path fill-rule="evenodd" clip-rule="evenodd" d="M19.7917 6.25C20.9423 6.25 21.875 7.18274 21.875 8.33333V15.625C21.875 19.0768 19.0768 21.875 15.625 21.875H8.33333C7.18274 21.875 6.25 20.9423 6.25 19.7917C6.25 18.6411 7.18274 17.7083 8.33333 17.7083H15.625C16.7756 17.7083 17.7083 16.7756 17.7083 15.625V8.33333C17.7083 7.18274 18.6411 6.25 19.7917 6.25ZM32.2917 6.25C33.4423 6.25 34.375 7.18274 34.375 8.33333V15.625C34.375 16.7756 35.3077 17.7083 36.4583 17.7083H43.75C44.9006 17.7083 45.8333 18.6411 45.8333 19.7917C45.8333 20.9423 44.9006 21.875 43.75 21.875H36.4583C33.0066 21.875 30.2083 19.0768 30.2083 15.625V8.33333C30.2083 7.18274 31.1411 6.25 32.2917 6.25ZM6.25 32.2917C6.25 31.1411 7.18274 30.2083 8.33333 30.2083H15.625C19.0768 30.2083 21.875 33.0066 21.875 36.4583V43.75C21.875 44.9006 20.9423 45.8333 19.7917 45.8333C18.6411 45.8333 17.7083 44.9006 17.7083 43.75V36.4583C17.7083 35.3077 16.7756 34.375 15.625 34.375H8.33333C7.18274 34.375 6.25 33.4423 6.25 32.2917ZM36.4583 34.375C35.3077 34.375 34.375 35.3077 34.375 36.4583V43.75C34.375 44.9006 33.4423 45.8333 32.2917 45.8333C31.1411 45.8333 30.2083 44.9006 30.2083 43.75V36.4583C30.2083 33.0066 33.0066 30.2083 36.4583 30.2083H43.75C44.9006 30.2083 45.8333 31.1411 45.8333 32.2917C45.8333 33.4423 44.9006 34.375 43.75 34.375H36.4583Z" fill="black"/>
</svg>
