<svg width="50" height="50" viewBox="0 0 50 50" fill="none" xmlns="http://www.w3.org/2000/svg">
<path d="M27.5833 32.5417L20.4792 34.0625C20.2022 34.093 19.9228 34.093 19.6458 34.0625C18.6604 34.071 17.7134 33.6802 17.0208 32.9792C16.1307 32.0661 15.7623 30.765 16.0417 29.5208L17.5625 22.4375C17.8856 21.0447 18.6099 19.7771 19.6458 18.7917L31.5208 6.91666H12.7708C10.4472 6.88843 8.21042 7.79903 6.56722 9.44223C4.92402 11.0854 4.01342 13.3222 4.04165 15.6458V37.2083C4.04165 41.9718 7.9032 45.8333 12.6667 45.8333H34.25C39.0134 45.8333 42.875 41.9718 42.875 37.2083V18.8958L31.25 30.5417C30.2489 31.5516 28.9744 32.2468 27.5833 32.5417Z" fill="#292929"/>
<path fill-rule="evenodd" clip-rule="evenodd" d="M34.9375 6.47916C37.3486 3.71304 41.5348 3.39745 44.3333 5.77083C45.5063 7.12141 46.0913 8.88452 45.9583 10.6684C45.8252 12.4523 44.9853 14.1091 43.625 15.2708L29.7292 29.1667C28.9963 29.8599 28.0765 30.3234 27.0833 30.5L20.0417 32.0833C19.4623 32.2522 18.8372 32.0817 18.4239 31.642C18.0105 31.2023 17.8789 30.5678 18.0833 30L19.6042 22.9167C19.8365 21.9518 20.3345 21.0713 21.0417 20.375L34.9375 6.47916ZM35.7916 16.1875L40.4583 11.5208C41.032 10.9052 41.0151 9.94581 40.42 9.35079C39.825 8.75576 38.8656 8.73883 38.25 9.3125L33.5833 13.9792C32.974 14.5892 32.974 15.5775 33.5833 16.1875C34.1934 16.7968 35.1816 16.7968 35.7916 16.1875Z" fill="#292929"/>
</svg>
