<svg width="225" height="71" viewBox="0 0 225 71" fill="none" xmlns="http://www.w3.org/2000/svg">
<path fill-rule="evenodd" clip-rule="evenodd" d="M93.7585 1.50886C93.4364 1.85799 93.1748 1.89521 92.8657 1.63504C92.2617 1.12676 89.5838 2.46588 89.1554 3.49025C88.9109 4.07403 88.8829 3.92587 89.0438 2.90292L89.2592 1.53473L87.7267 1.80695C85.4856 2.20536 84.8359 2.24825 84.4504 2.02317C83.9531 1.73287 81.7187 1.97425 81.2445 2.36947C80.9801 2.58994 80.7884 2.54847 80.6873 2.24789C80.5635 1.88032 80.3058 1.87501 79.3825 2.22024C78.598 2.51338 78.0266 2.5389 77.587 2.3007C77.0952 2.0338 76.7739 2.12171 76.2314 2.67146C75.64 3.27084 75.2704 3.34917 74.0376 3.13792C73.222 2.99791 72.3973 2.93659 72.205 3.00146C72.0126 3.06597 70.9896 3.16805 69.9317 3.22795C66.8744 3.40128 66.7841 3.41475 66.7841 3.70008C66.7841 3.84931 66.2882 3.89716 65.6818 3.80713C64.6962 3.66038 64.6001 3.72348 64.7746 4.40012C64.9057 4.90841 64.8081 5.15724 64.478 5.15724C64.2077 5.15724 63.9863 4.91798 63.9863 4.62556C63.9863 4.2711 63.6366 4.09388 62.9371 4.09388C62.331 4.09388 61.8879 4.28103 61.8879 4.53694C61.8875 4.81058 61.3462 4.99809 60.4711 5.02751C58.8592 5.08138 58.349 5.39862 59.1002 5.87996C59.4485 6.10327 59.4737 6.21138 59.1775 6.21528C58.9372 6.21811 58.7403 6.45985 58.7403 6.75227C58.7403 7.04469 58.5042 7.28395 58.2157 7.28395C57.9272 7.28395 57.6911 7.04469 57.6911 6.75227C57.6911 6.45985 57.8485 6.22059 58.0409 6.22059C58.2332 6.22059 58.3906 6.06109 58.3906 5.86614C58.3906 5.33163 57.4432 5.4408 57.2316 5.99941C57.119 6.29644 56.7199 6.42405 56.2118 6.32551C55.4403 6.17629 55.3878 6.25852 55.5203 7.40872C55.6567 8.59223 56.5223 9.42094 56.9637 8.79037C57.0752 8.63122 57.5995 8.47278 58.1283 8.43875C58.6571 8.40473 59.2869 8.35865 59.5272 8.33632C59.7678 8.31399 60.3183 8.40579 60.7513 8.54013C61.3388 8.72267 61.5382 8.6415 61.5382 8.22006C61.5382 7.76104 61.705 7.72028 62.4352 8.00172C63.7852 8.5217 65.0355 8.43237 65.0355 7.81563C65.0355 7.48492 65.3656 7.28395 65.9098 7.28395C66.4208 7.28395 66.7841 7.48776 66.7841 7.7738C66.7841 8.44513 69.5509 8.48767 69.8034 7.82023C69.9041 7.5544 70.407 7.34527 70.9207 7.35519C72.7005 7.38993 73.0793 7.28147 73.0793 6.73668C73.0793 6.43575 73.2762 6.21528 73.5165 6.24718C73.7571 6.27872 74.3131 6.28581 74.7528 6.26242C75.4372 6.22662 75.4987 6.11993 75.1819 5.51984C74.8801 4.94775 74.9098 4.85702 75.3445 5.02573C75.6376 5.13987 75.8771 5.45533 75.8771 5.72684C75.8771 5.99835 76.0964 6.22059 76.3643 6.22059C76.6322 6.22059 76.941 6.45737 77.0508 6.7466C77.3432 7.51931 81.561 7.31408 82.5217 6.48041C83.2607 5.8392 84.1021 5.63681 83.7709 6.18019C83.6656 6.3528 83.9748 6.57044 84.4581 6.66437C84.9411 6.75794 85.4224 6.69379 85.5273 6.52188C85.6322 6.34961 85.8644 6.3007 86.0435 6.41306C86.2225 6.52507 86.3691 6.4478 86.3691 6.2415C86.3691 6.03521 86.6933 5.86614 87.0892 5.86614C87.4851 5.86614 87.712 6.02564 87.5931 6.22059C87.4602 6.43858 87.9569 6.55449 88.884 6.52188C89.8891 6.48643 90.0773 6.42015 89.4485 6.32303C88.7766 6.21918 88.5647 6.0221 88.7102 5.63752C88.8224 5.34084 89.0106 5.23096 89.1281 5.3933C89.4589 5.8509 90.8502 6.57504 91.3989 6.57504C91.6696 6.57504 92.616 5.88138 93.5018 5.03318C94.6045 3.97762 95.1123 3.67421 95.1123 4.07084C95.1123 4.38914 94.6374 4.93429 94.0569 5.28165C92.8688 5.99303 92.9692 6.57504 94.2793 6.57504C94.8385 6.57504 95.0658 6.43114 94.9102 6.17593C94.7357 5.88989 94.8434 5.87677 95.289 6.1295C96.0762 6.57611 97.2107 6.29148 97.2107 5.64744C97.2107 5.37806 97.3681 5.15724 97.5605 5.15724C97.7528 5.15724 97.9102 5.36991 97.9102 5.62972C97.9102 6.37123 102.029 6.28652 102.227 5.54111C102.349 5.07855 102.383 5.08883 102.416 5.6003C102.463 6.31488 103.173 6.41625 103.786 5.79525C104.104 5.4727 104.205 5.47093 104.205 5.78781C104.205 6.25143 110.347 6.23123 111.083 5.76548C111.307 5.62334 111.57 5.7077 111.668 5.95263C111.804 6.29255 111.93 6.27624 112.2 5.88315C112.394 5.59995 112.476 5.24301 112.383 5.08953C112.289 4.93641 112.457 4.90593 112.756 5.02183C113.054 5.1381 113.298 5.42095 113.298 5.65099C113.298 6.10788 113.966 6.21209 116.621 6.16955C117.583 6.15395 119.628 6.1777 121.167 6.22201C126.069 6.36344 126.372 6.34678 126.509 5.92852C126.603 5.6439 126.804 5.68005 127.166 6.04656C127.824 6.71363 129.99 6.72746 131.532 6.0742C132.551 5.64284 132.808 5.64284 133.39 6.0742C134.216 6.6867 134.938 6.74305 134.352 6.1497C133.781 5.57088 133.825 5.15724 134.457 5.15724C134.746 5.15724 134.982 5.39649 134.982 5.68891C134.982 5.98134 135.257 6.23371 135.594 6.2493C135.93 6.26525 136.678 6.31594 137.255 6.36202C137.832 6.4081 138.42 6.27553 138.561 6.06747C138.733 5.81439 138.82 5.83566 138.823 6.13198C138.826 6.37584 139.183 6.57256 139.616 6.56973C140.163 6.56583 140.264 6.47544 139.949 6.27234C139.584 6.03805 139.596 5.89556 140.012 5.54607C140.433 5.19197 140.599 5.24443 140.908 5.82999C141.135 6.25994 141.498 6.46694 141.811 6.34501C142.099 6.233 142.53 6.30318 142.768 6.50096C143.472 7.08616 144.625 7.14146 145.245 6.62006C145.621 6.30424 145.823 6.27305 145.823 6.5318C145.823 6.95395 146.953 7.08368 147.328 6.70442C147.831 6.19436 150.339 6.22768 150.627 6.74837C150.931 7.29954 152.429 7.45196 154.667 7.15954C155.395 7.06419 156.457 7.12196 157.027 7.28749C157.597 7.45338 158.064 7.46047 158.064 7.30344C158.064 7.14642 158.457 7.01811 158.938 7.01811C159.419 7.01811 159.813 7.21873 159.813 7.46401C159.813 7.99675 161.13 8.41855 161.288 7.9365C161.349 7.75183 161.986 7.46649 162.704 7.30238C163.875 7.03477 164.009 7.0773 164.009 7.71532C164.009 8.34447 164.16 8.39764 165.321 8.17788C166.042 8.04141 166.51 8.05417 166.361 8.20623C165.969 8.60677 168.297 9.34261 168.787 8.97327C169.025 8.79427 169.287 8.82156 169.42 9.03884C169.544 9.24336 170.24 9.41066 170.966 9.41066C171.692 9.41066 172.4 9.52551 172.538 9.66587C172.93 10.0629 176.372 10.071 176.862 9.6765C177.176 9.42307 177.299 9.49077 177.299 9.91646C177.299 10.3904 177.632 10.5045 178.96 10.4857C179.874 10.4726 181.15 10.5651 181.797 10.6913C182.557 10.8395 183.064 10.7696 183.232 10.4939C183.432 10.1667 183.607 10.1777 183.981 10.5407C184.69 11.2286 186.283 11.884 186.561 11.6022C186.996 11.1613 188.467 11.3187 188.659 11.827C188.808 12.2201 188.956 12.236 189.354 11.9014C189.858 11.4771 190.739 11.7139 190.446 12.1945C190.31 12.4175 191.297 12.4667 192.6 12.3016C192.841 12.2711 193.05 11.967 193.065 11.626C193.087 11.1301 193.133 11.1124 193.296 11.5374C193.408 11.8298 193.735 12.2442 194.022 12.4582C194.308 12.6723 194.44 13.0165 194.314 13.2228C194.172 13.455 194.339 13.5308 194.752 13.4213C195.119 13.3242 195.991 13.5198 196.69 13.8558C197.39 14.1922 198.742 14.4676 199.696 14.4676C200.65 14.4676 201.431 14.6059 201.431 14.7746C201.431 14.9437 201.667 15.0819 201.955 15.0819C202.244 15.0819 202.48 14.9054 202.48 14.6895C202.48 14.4737 202.716 14.3889 203.004 14.5013C203.293 14.6133 203.529 14.5506 203.529 14.362C203.529 13.7981 204.486 13.9735 204.716 14.5793C205.029 15.408 205.007 15.4364 204.029 15.4364C203.174 15.4364 203.159 15.4668 203.738 16.0535C204.172 16.493 204.388 16.5451 204.491 16.2342C204.588 15.9375 205.002 16.0825 205.784 16.6872C206.512 17.2497 207.157 17.4897 207.54 17.3408C207.899 17.2015 208.27 17.3071 208.449 17.5999C208.615 17.8721 209.032 18.0951 209.375 18.0951C209.719 18.0955 210.019 18.295 210.043 18.5382C210.067 18.7817 210.106 19.1149 210.13 19.2783C210.252 20.1094 213.321 20.7701 213.321 19.9652C213.321 19.727 213.567 19.8869 213.866 20.3203C214.166 20.7542 214.325 21.2501 214.22 21.4223C213.965 21.8406 214.673 22.3737 215.867 22.6629C216.446 22.8033 217.223 23.4626 217.79 24.2934C218.314 25.0608 218.936 25.6946 219.173 25.702C219.41 25.7094 219.711 26.1486 219.842 26.6785C219.973 27.2081 220.37 27.9567 220.725 28.3423C221.162 28.8183 221.287 29.2774 221.113 29.7722C220.971 30.1727 220.891 31.129 220.933 31.8968C220.975 32.6649 220.775 33.6559 220.488 34.0997C220.201 34.5435 219.966 35.151 219.966 35.4505C219.966 35.7497 219.809 35.9545 219.616 35.906C219.423 35.8571 219.066 36.2161 218.823 36.7035C218.579 37.1909 218.029 37.747 217.599 37.9395C217.17 38.1319 216.819 38.5626 216.819 38.8965C216.819 39.2307 216.596 39.6313 216.325 39.7872C216.053 39.9432 215.777 40.5493 215.713 41.1341C215.627 41.9086 215.403 42.2074 214.89 42.2337C213.966 42.2811 212.313 43.1719 211.231 44.2055C210.755 44.6606 210.324 44.9977 210.273 44.9541C210.014 44.7322 206.765 46.212 206.07 46.8688C205.826 47.0985 205.627 47.476 205.627 47.7075C205.627 47.9485 205.34 48.0523 204.955 47.9503C204.585 47.8524 203.794 48.0729 203.198 48.4408C202.601 48.8084 201.886 49.1093 201.609 49.1093C201.332 49.1093 200.523 49.6275 199.811 50.2606C199.1 50.894 198.229 51.3622 197.876 51.3016C197.424 51.224 197.234 51.4097 197.234 51.9293C197.234 52.5517 197.088 52.6301 196.302 52.4302C195.531 52.2342 195.408 52.2941 195.592 52.7779C195.739 53.1689 195.63 53.3627 195.262 53.3627C194.916 53.3627 194.786 53.165 194.912 52.8311C195.049 52.4695 194.893 52.2994 194.425 52.2994C194.046 52.2994 193.737 52.4323 193.737 52.5946C193.737 52.7573 193.54 52.9172 193.299 52.9505C189.455 53.4818 187.518 54.2319 187.375 55.2449C187.277 55.9329 187.216 55.9538 186.757 55.4533C186.237 54.8865 186.219 54.8883 183.185 55.8265C182.48 56.0449 181.313 56.3001 180.592 56.3933C179.871 56.4869 179.101 56.7159 178.879 56.9019C178.658 57.088 177.543 57.345 176.402 57.473C175.25 57.602 173.591 58.1028 172.675 58.5984C171.348 59.3151 170.922 59.4061 170.511 59.0606C170.137 58.7462 169.811 58.7323 169.301 59.0095C168.916 59.2179 168.065 59.3884 167.408 59.3884C166.752 59.3884 165.727 59.6351 165.131 59.9368C164.463 60.2746 162.677 60.5521 160.483 60.6591C158.522 60.7548 156.647 60.9806 156.315 61.161C155.983 61.3411 154.627 61.5144 153.303 61.5463C151.978 61.5782 150.261 61.8175 149.487 62.0784C148.713 62.3389 147.061 62.581 145.815 62.6164C144.229 62.6618 143.304 62.8752 142.729 63.3289C142.015 63.8914 141.841 63.9098 141.405 63.4682C141.04 63.0981 140.672 63.0489 140.052 63.2874C139.584 63.4678 138.606 63.6029 137.879 63.5876C137.151 63.5724 136.398 63.5944 136.206 63.6365C136.013 63.6791 135.36 63.6865 134.755 63.6536C134.149 63.6206 133.55 63.7641 133.423 63.9722C133.296 64.1803 132.827 64.3508 132.381 64.3508C131.935 64.3508 131.378 64.5854 131.143 64.8725C130.791 65.3028 130.635 65.3127 130.257 64.9299C129.689 64.354 125.682 64.4975 124.942 65.1203C124.546 65.4538 124.374 65.4442 124.149 65.0749C123.935 64.7229 122.881 64.6194 119.976 64.6648C115.728 64.7311 114.353 65.0629 114.337 66.0256C114.327 66.6083 114.298 66.6058 113.946 65.9919C113.639 65.4556 113.508 65.4219 113.257 65.8147C113.015 66.1957 112.906 66.1446 112.752 65.5765C112.618 65.0852 112.225 64.8271 111.528 64.7733C110.963 64.7297 110.501 64.8349 110.501 65.0076C110.501 65.1802 110.028 65.2653 109.451 65.1972C108.874 65.1291 108.402 65.2181 108.402 65.395C108.402 65.8547 107.331 66.0298 106.275 65.743C105.595 65.5584 105.27 65.6629 104.96 66.1648C104.734 66.5317 104.283 66.8319 103.958 66.8319C103.497 66.8319 103.459 66.7373 103.786 66.4066C104.675 65.5049 104.191 65.2372 101.751 65.2819C100.402 65.3064 99.2154 65.1929 99.1157 65.0292C98.8499 64.5932 97.2684 65.4173 97.0925 66.0837C96.9715 66.5438 96.9341 66.5282 96.9016 66.0032C96.8652 65.4216 96.5704 65.3617 94.1506 65.4471C92.66 65.4995 91.0915 65.6672 90.6655 65.8193C90.2095 65.9823 89.7996 65.9458 89.6684 65.731C89.546 65.53 89.2057 65.4591 88.9123 65.5733C88.6189 65.6874 88.202 65.6417 87.9859 65.4715C86.8517 64.5783 85.3517 64.8931 84.8796 66.123C84.7176 66.5455 84.6701 66.526 84.648 66.0287C84.6285 65.5853 84.3403 65.407 83.6587 65.4177C83.1299 65.4255 82.3083 65.3882 81.8334 65.3344C80.8818 65.227 80.3579 66.3527 81.1336 66.8383C81.3693 66.9861 81.4543 67.2846 81.3221 67.5011C80.9752 68.07 80.4236 67.9857 80.4236 67.3636C80.4236 67.0712 80.2607 66.8319 80.0617 66.8319C79.8221 66.8319 79.8326 66.5799 80.0932 66.0865C80.4723 65.3684 80.4219 65.3461 78.7061 65.4662C77.3705 65.5602 76.926 65.4698 76.926 65.105C76.9263 64.7127 76.8246 64.7038 76.4017 65.0597C76.0835 65.3273 75.8771 65.3556 75.8771 65.1316C75.8771 64.9154 74.971 64.7605 73.6913 64.758C72.4893 64.7555 69.7485 64.7002 67.6015 64.6354C65.4541 64.5709 63.7701 64.6379 63.8597 64.7846C64.0765 65.1398 62.9665 64.7137 61.9411 64.0477C61.3455 63.6613 60.9611 63.6153 60.5421 63.8801C60.22 64.0839 59.6549 64.1228 59.2649 63.9687C58.2346 63.5607 55.613 63.5908 54.0581 64.0286C53.0334 64.3167 52.6344 64.3065 52.4392 63.9867C52.292 63.745 51.2952 63.5408 50.1268 63.5132C48.4253 63.4731 47.9389 63.6011 47.2866 64.2621C46.3077 65.2543 45.6338 65.3205 46.2213 64.3667C46.7166 63.5632 46.3357 62.9574 45.7244 63.577C45.1218 64.1877 44.5877 64.0913 45.1008 63.4646C45.3404 63.1722 45.4775 62.9248 45.4058 62.9149C45.3344 62.9053 44.2807 62.8085 43.0647 62.7001C41.082 62.5232 40.761 62.5888 39.9552 63.3381L39.0568 64.1735L39.2876 63.1988C39.539 62.1369 39.5621 62.1493 37.1444 62.0454C36.3268 62.01 35.6581 62.1269 35.6581 62.3052C35.6581 62.4835 35.4108 62.3786 35.1086 62.072C34.8061 61.7657 34.2815 61.5151 33.9426 61.5151C33.6037 61.5151 33.226 61.4131 33.1029 61.2886C32.9802 61.1639 32.2849 61.0214 31.5585 60.9721C28.2035 60.7431 26.0621 60.4096 25.6334 60.0491C25.2871 59.7578 25.0203 59.7787 24.6038 60.1292C24.1274 60.5298 23.9722 60.5064 23.5899 59.9765C23.2507 59.5065 23.0926 59.4657 22.9548 59.8127C22.8107 60.175 22.7054 60.1803 22.4659 59.8379C22.2976 59.5979 21.7944 59.4728 21.3474 59.56C20.9001 59.6475 19.6544 59.4054 18.5786 59.0223C17.5032 58.6388 16.3417 58.4158 15.9983 58.5264C15.6153 58.6494 15.3716 58.5466 15.3684 58.2602C15.3642 57.9164 15.2715 57.9334 15.0159 58.3251C14.719 58.7802 14.5812 58.744 14.0597 58.0752C13.7243 57.6456 12.5454 56.9455 11.4392 56.5195C10.333 56.0938 9.42824 55.6401 9.42824 55.5114C9.42824 55.3828 8.87741 55.3424 8.20418 55.4221C7.07874 55.5554 6.98012 55.4916 6.98012 54.6331C6.98012 53.8742 6.77902 53.6587 5.90435 53.4815C5.14508 53.3277 4.56173 52.835 3.92137 51.8067C3.4223 51.0053 3.05124 50.2957 3.0967 50.229C3.14252 50.1624 2.95192 49.9231 2.67318 49.6973C2.39479 49.4716 2.0685 48.3713 1.94784 47.253C1.75549 45.4645 1.81354 45.166 2.43117 44.7751C2.81727 44.5309 3.13308 43.9705 3.13308 43.5299C3.13308 43.0897 3.28311 42.7292 3.46637 42.7292C3.64963 42.7292 4.06126 42.1709 4.38057 41.4886C4.69987 40.8063 5.1797 40.248 5.4462 40.248C5.71269 40.248 5.93093 40.047 5.93093 39.8017C5.93093 39.5561 6.24568 39.1559 6.63039 38.9124C7.01509 38.6689 7.32985 38.1706 7.32985 37.8051C7.32985 37.4259 7.64845 37.0562 8.07268 36.9438C8.67002 36.7854 8.77144 36.5695 8.59063 35.839C8.371 34.9528 8.8211 34.5771 9.25337 35.2857C9.37228 35.4806 9.60065 35.6401 9.76118 35.6401C10.1959 35.6401 10.5173 34.5736 10.2249 34.1018C10.085 33.8757 10.0154 33.4117 10.071 33.0704C10.1263 32.7294 9.99515 32.4501 9.77937 32.4501C9.56358 32.4501 9.48139 32.605 9.59681 32.7942C9.71222 32.9835 9.4125 33.2384 8.93057 33.361C8.44864 33.4836 7.95936 33.887 7.84325 34.2574C7.72749 34.6282 7.48583 34.9312 7.30642 34.9312C7.12701 34.9312 6.98012 35.1255 6.98012 35.3629C6.98012 35.6004 6.56149 36.1594 6.05018 36.6049C5.53853 37.0501 4.94748 37.7732 4.73694 38.211C4.5264 38.6491 3.84653 39.2467 3.22645 39.5391C2.60533 39.8319 2.09577 40.3444 2.09158 40.6801C2.08668 41.0746 1.89888 41.2171 1.55929 41.0852C0.950755 40.8484 0.898295 41.2557 1.37323 42.5225C1.65371 43.2694 1.59146 43.4905 1.01371 43.8039C0.629701 44.0123 0.412169 44.3409 0.530378 44.5348C0.648587 44.7283 0.544367 45.132 0.298856 45.4319C-0.0330389 45.8374 -0.0491263 46.1362 0.236604 46.6001C0.471973 46.9815 0.499601 47.4172 0.308648 47.7231C-0.116625 48.404 -0.0973893 50.1727 0.335228 50.1727C0.52758 50.1727 0.69755 50.6115 0.712588 51.1474C0.727626 51.6833 0.819605 51.923 0.916481 51.6791C1.14555 51.1045 1.6677 51.1045 1.61804 51.6791C1.55334 52.427 2.88477 54.7805 3.37264 54.7805C3.6255 54.7805 3.83254 55.0049 3.83254 55.2789C3.83254 55.5919 4.07665 55.7128 4.48758 55.6039C4.93594 55.4852 5.3843 55.7748 5.91029 56.5234C6.33242 57.1245 6.98222 57.6162 7.35363 57.6162C7.7254 57.6162 8.02931 57.8554 8.02931 58.1478C8.02931 58.4403 8.26538 58.6795 8.55391 58.6795C8.84244 58.6795 9.0785 58.8525 9.0785 59.0634C9.0785 59.2746 9.2754 59.3743 9.51567 59.2849C9.75628 59.1956 9.91541 58.9489 9.8696 58.7366C9.82378 58.5243 10.0207 58.4417 10.3068 58.553C10.5928 58.6643 10.8272 58.9595 10.8272 59.2087C10.8272 59.6511 12.8252 60.8062 13.5904 60.8062C13.802 60.8062 13.9747 60.9416 13.9747 61.1068C13.9747 61.272 14.4626 61.4212 15.0593 61.4386C15.6555 61.4556 16.4239 61.7271 16.7666 62.0415C17.1849 62.425 17.6906 62.5363 18.3051 62.38C18.8423 62.2435 19.2207 62.296 19.2207 62.5069C19.2207 62.7047 19.5355 62.783 19.9202 62.6813C20.7095 62.4718 20.8375 62.0178 20.1825 61.7498C19.9422 61.6516 20.0996 61.5584 20.5322 61.5431C20.9872 61.5268 21.3191 61.7246 21.3191 62.0121C21.3191 62.604 23.2667 63.448 24.3792 63.3381C24.8119 63.2956 25.1661 63.409 25.1661 63.5905C25.1661 64.1388 26.2713 64.3905 26.7843 63.9591C27.1561 63.6461 27.2645 63.6784 27.2645 64.1019C27.2645 64.5152 27.7986 64.6974 29.4503 64.8477C30.6527 64.9572 32.0845 65.0295 32.6329 65.009C33.531 64.975 33.6104 64.8732 33.4348 63.9839C33.2977 63.2895 33.3995 62.9351 33.7783 62.7876C34.5952 62.47 34.703 62.5275 34.4662 63.1531C34.299 63.5947 34.4116 63.684 34.9534 63.5405C35.8515 63.3026 35.8585 63.6933 34.968 64.3437C34.3326 64.808 34.3224 64.8973 34.8372 65.474C35.2317 65.9157 35.5692 66.0064 35.9833 65.782C36.3159 65.6013 36.7818 65.5963 37.0591 65.77C37.328 65.9384 37.6606 66.0061 37.7977 65.9199C37.9352 65.8338 38.4933 65.9369 39.0386 66.1493C39.5838 66.3616 40.8166 66.6065 41.7784 66.694C42.7401 66.7812 43.8222 66.945 44.1828 67.0577C44.6098 67.191 44.7553 67.1254 44.5993 66.8698C44.2405 66.2815 44.9494 66.3974 45.4505 67.0092C46.0654 67.7602 46.4997 67.6688 46.4997 66.7887C46.4997 66.2382 46.6172 66.1294 46.9369 66.3825C47.1775 66.5732 47.8857 66.9035 48.5107 67.1165C49.5774 67.4802 49.6473 67.4529 49.6473 66.6777C49.6473 66.1496 49.8995 65.7845 50.3457 65.6661C50.8951 65.5205 50.9798 65.5974 50.7427 66.027C50.2146 66.9829 51.483 67.8559 53.387 67.8474C54.3117 67.8432 55.7379 67.9952 56.5566 68.1849C57.4257 68.3862 58.1255 68.3979 58.2385 68.2125C58.3448 68.0381 58.265 67.8953 58.0615 67.8953C57.8579 67.8953 57.6911 67.7709 57.6911 67.6185C57.6911 67.1807 59.6716 66.5392 60.1322 66.8277C60.405 66.9985 60.2672 67.1679 59.7318 67.3207L58.9152 67.5532L59.7112 68.2317C60.7219 69.093 65.658 69.2195 65.9714 68.3922C66.2214 67.7319 66.7841 67.756 66.7841 68.427C66.7841 68.7538 67.1118 68.9586 67.635 68.9586C68.3509 68.9586 68.4814 68.7924 68.4565 67.913C68.4352 67.1488 68.2376 66.8387 67.7228 66.761C67.1087 66.6682 67.0859 66.5983 67.5469 66.2138C67.9939 65.8405 68.2044 66.0273 68.9161 67.4302L69.7568 69.0877L69.9551 68.0484C70.0643 67.4767 70.0314 66.6579 69.8827 66.2287C69.6729 65.624 69.7268 65.4928 70.1216 65.6463C70.4018 65.7551 70.6336 66.0266 70.6364 66.2496C70.6396 66.492 70.7644 66.4583 70.9473 66.1663C71.3768 65.479 72.1028 66.0408 71.8458 66.8617C71.729 67.2353 71.7905 67.5408 71.9829 67.5408C72.1752 67.5408 72.4326 67.8598 72.5547 68.2497C72.6767 68.6396 73.002 68.9586 73.2776 68.9586C73.5532 68.9586 73.7788 69.1181 73.7788 69.3131C73.7788 69.7856 75.0455 69.7643 75.9446 69.2766C76.4983 68.9764 76.735 68.9969 76.9655 69.3652C77.1984 69.7377 77.2666 69.7065 77.2708 69.2245C77.2771 68.4851 78.2238 68.4103 78.9971 69.088C79.301 69.3539 80.1397 69.6629 80.8608 69.7746C81.8838 69.9327 82.1723 69.86 82.1723 69.4442C82.1723 68.9094 83.0221 69.004 84.2521 69.675C84.5305 69.827 85.1153 69.8139 85.5514 69.6456C86.0274 69.4623 86.4275 69.4765 86.5523 69.681C86.8573 70.1811 89.0837 70.0971 89.2557 69.5789C89.3621 69.2592 89.5401 69.2401 89.8968 69.5102C90.1686 69.7165 91.295 69.9249 92.4002 69.9738C94.1772 70.0521 94.5073 69.9554 95.2582 69.1341L96.1073 68.2058L96.2217 69.0253C96.3294 69.7951 96.4742 69.8402 98.6097 69.7679C99.8599 69.7257 101.04 69.6746 101.233 69.6541C101.425 69.6339 103.731 69.7274 106.358 69.8614C110.838 70.0904 111.143 70.0649 111.301 69.4435C111.449 68.859 111.473 68.8541 111.509 69.4017C111.545 69.955 111.935 70.179 112.671 70.0691C113.204 69.9894 123.321 69.5917 124.227 69.6147C124.756 69.6282 125.189 69.49 125.189 69.3074C125.189 69.1068 125.511 69.1001 126.005 69.2908C126.454 69.4637 127.03 69.4744 127.286 69.3145C127.543 69.1532 128.012 69.1894 128.337 69.3957C128.703 69.6268 129.442 69.659 130.292 69.4808C131.044 69.323 131.802 69.2291 131.977 69.272C132.152 69.3152 132.407 69.166 132.544 68.9409C132.733 68.6315 132.979 68.6311 133.545 68.9384C133.959 69.1624 134.44 69.256 134.615 69.1465C134.79 69.037 135.919 68.8693 137.123 68.7747C138.328 68.6797 139.415 68.4351 139.54 68.2309C139.664 68.0268 140.066 67.8655 140.434 67.8729C141.354 67.891 142.385 67.8893 143.113 67.8687C143.449 67.8591 143.725 67.622 143.725 67.3416C143.725 67.0613 143.961 66.8319 144.25 66.8319C144.538 66.8319 144.774 66.9914 144.774 67.1864C144.774 67.3813 145 67.5408 145.277 67.5408C145.634 67.5408 145.774 67.1265 145.76 66.106C145.749 65.3166 145.838 64.5723 145.957 64.4518C146.076 64.3313 146.173 64.6503 146.173 65.161C146.173 66.1982 146.841 67.8953 147.25 67.8953C147.905 67.8953 148.621 67.4235 148.621 66.9921C148.621 66.1939 149.401 65.9791 149.882 66.6451C150.421 67.392 151.596 67.102 151.291 66.2974C151.175 65.9883 151.289 65.7686 151.567 65.7686C151.829 65.7686 152.134 66.0078 152.245 66.3002C152.356 66.5927 152.805 66.8135 153.244 66.7908C153.836 66.7603 153.884 66.7079 153.43 66.5877C152.719 66.3995 152.6 65.7686 153.276 65.7686C153.528 65.7686 154.039 65.9947 154.411 66.2708C154.89 66.6256 155.218 66.665 155.527 66.4048C155.836 66.1453 155.966 66.1588 155.966 66.4502C155.966 66.7249 156.347 66.7915 157.102 66.6487C158.316 66.4186 158.728 66.3477 162.261 65.7608C163.511 65.5527 164.849 65.2362 165.233 65.0565C165.618 64.8771 166.326 64.747 166.807 64.7676C168.057 64.8215 170.421 64.3486 170.812 63.9665C170.994 63.7879 171.442 63.6419 171.807 63.6419C172.171 63.6419 172.888 63.3441 173.398 62.9797C174.031 62.5289 174.55 62.408 175.026 62.6005C176.132 63.0474 176.595 62.979 176.377 62.4013C176.249 62.0645 176.381 61.8696 176.737 61.8696C177.046 61.8696 177.299 62.0291 177.299 62.224C177.299 62.419 177.535 62.5785 177.824 62.5785C178.443 62.5785 178.449 62.5395 178.007 61.361C177.786 60.7701 177.786 60.4518 178.007 60.4518C178.195 60.4518 178.348 60.691 178.348 60.9835C178.348 61.2759 178.65 61.5151 179.019 61.5151C179.387 61.5151 179.741 61.6697 179.806 61.8586C179.874 62.0599 180.589 61.9589 181.532 61.6147C182.749 61.1699 183.239 60.7648 183.542 59.9506L183.943 58.8745L184.475 59.6447C184.982 60.3781 185.076 60.3905 186.437 59.9042C187.222 59.6231 187.983 59.4671 188.128 59.5575C188.272 59.6475 188.319 59.3463 188.232 58.8876C188.078 58.0685 188.857 57.1369 189.095 57.8575C189.161 58.0596 189.419 58.5076 189.669 58.8536C190.07 59.4086 190.284 59.4317 191.492 59.0499C192.246 58.8121 193.529 58.3127 194.345 57.9398C195.16 57.5669 196.068 57.2617 196.363 57.2617C196.657 57.2617 197.521 56.863 198.283 56.3756C199.045 55.8882 199.896 55.4895 200.175 55.4895C200.453 55.4895 200.889 55.2899 201.143 55.0464C201.397 54.8029 202.134 54.5604 202.78 54.5083C203.425 54.4559 204.287 54.1769 204.694 53.888C205.1 53.5992 205.713 53.3627 206.055 53.3627C206.397 53.3627 206.677 53.1235 206.677 52.8311C206.677 52.533 206.989 52.2994 207.387 52.2994C207.778 52.2994 208.188 52.0601 208.299 51.7677C208.409 51.4753 208.881 51.236 209.346 51.236C209.926 51.236 210.296 50.9578 210.524 50.3499C210.849 49.4829 211.573 49.1161 211.573 49.8182C211.573 50.3425 212.247 50.2485 212.847 49.641C213.135 49.3486 213.638 49.1093 213.963 49.1093C214.288 49.1093 214.71 48.7634 214.9 48.3409C215.09 47.918 215.559 47.3998 215.942 47.1889C216.325 46.978 216.987 46.4467 217.412 46.0079C217.837 45.5694 218.31 45.2036 218.463 45.1954C218.617 45.1869 219.136 44.6794 219.617 44.0669C220.098 43.4544 220.925 42.5353 221.456 42.0249C222.742 40.7861 224.787 36.6255 223.807 37.2391C223.1 37.6825 223.348 36.007 224.25 34.251C224.793 33.1944 225.114 32.2374 224.963 32.1243C224.811 32.0109 224.687 30.815 224.687 29.4666C224.686 27.823 224.542 26.966 224.25 26.8671C224.01 26.7859 223.813 26.5109 223.813 26.2557C223.813 26.0001 223.592 25.7052 223.322 25.6003C223.051 25.495 222.725 24.9215 222.595 24.3257C222.466 23.7298 222.215 23.1514 222.038 23.0401C221.86 22.9291 221.709 22.4885 221.702 22.0614C221.695 21.6343 221.342 20.8797 220.916 20.3845C219.855 19.1514 217.518 17.4422 217.518 17.8994C217.518 18.1043 217.282 18.272 216.994 18.272C216.705 18.272 216.469 18.138 216.469 17.9746C216.469 17.8108 216.076 17.495 215.595 17.2731C215.114 17.0509 214.717 16.5869 214.712 16.2413C214.703 15.5998 212.715 14.373 211.684 14.373C211.377 14.373 210.901 14.0937 210.627 13.7527C210.285 13.3263 210.075 13.2639 209.955 13.5535C209.837 13.8385 209.552 13.7428 209.073 13.2568C208.581 12.7585 208.107 12.605 207.52 12.7539C207.047 12.8744 206.677 12.812 206.677 12.6121C206.677 12.0336 204.168 10.6037 202.655 10.3191C201.885 10.1745 201.094 9.92107 200.897 9.75625C200.173 9.15014 196.52 8.10521 193.966 7.77416C193.167 7.67066 192.001 7.4509 191.376 7.28608C190.606 7.08333 190.239 7.11169 190.239 7.37433C190.239 7.58736 189.885 7.43034 189.452 7.02484C188.958 6.56228 188.014 6.22272 186.917 6.11248C185.955 6.01572 184.381 5.75803 183.419 5.53933C182.458 5.32099 180.759 5.07997 179.645 5.0034C178.531 4.9272 177.429 4.71133 177.197 4.52383C176.965 4.33632 175.673 4.16831 174.326 4.15024C171.914 4.11798 171.34 4.04532 170.305 3.64231C169.363 3.27616 166.108 3.12658 166.108 3.44948C166.108 3.62281 165.817 3.60686 165.462 3.41404C165.018 3.17301 164.69 3.19109 164.413 3.47252C164.108 3.78125 164.009 3.76034 164.009 3.38816C164.009 3.0291 163.89 3.06101 163.569 3.50513C163.072 4.19348 161.665 4.12791 161.218 3.39596C161.027 3.08227 160.568 3.00146 159.831 3.15104C159.081 3.30274 158.804 3.25135 158.963 2.98976C159.11 2.74873 158.898 2.76752 158.396 3.04009C157.733 3.39986 157.526 3.38001 157.198 2.9256C156.843 2.43292 156.761 2.43752 156.404 2.9692C156.036 3.51896 156.005 3.51683 155.986 2.94191C155.975 2.60093 155.926 2.30709 155.878 2.28936C155.83 2.27199 154.227 2.18693 152.315 2.10079C150.404 2.01431 148.647 1.78179 148.412 1.584C148.119 1.3373 147.906 1.35113 147.738 1.62725C147.578 1.89025 147.05 1.94129 146.22 1.77363C144.055 1.33553 142.676 1.37133 142.676 1.86579C142.676 2.11639 142.518 2.32162 142.326 2.32162C142.134 2.32162 142.016 2.14226 142.064 1.92286C142.112 1.70345 141.758 1.48086 141.277 1.42804C140.796 1.37523 140.049 1.21714 139.616 1.07643C139.02 0.88325 138.829 0.960521 138.829 1.39402C138.829 1.70948 139.012 1.96717 139.237 1.96717C139.461 1.96717 139.527 2.08662 139.383 2.2323C139.239 2.37833 138.923 2.22343 138.681 1.88812C138.084 1.05941 136.454 1.00128 135.029 1.75768C134.102 2.24931 133.768 2.28936 133.455 1.94519C133.155 1.6159 133.165 1.57018 133.495 1.75875C133.764 1.91223 133.933 1.79561 133.933 1.4564C133.933 1.15263 133.731 0.903809 133.486 0.903809C132.942 0.903809 131.47 1.86934 130.872 2.61829C130.492 3.09468 130.435 3.06171 130.435 2.36557C130.435 1.72614 130.294 1.61023 129.736 1.78994C129.237 1.95015 129.036 1.85374 129.036 1.45392C129.036 1.04311 128.731 0.910543 127.9 0.959457C127.274 0.996675 126.508 1.15299 126.197 1.30718C125.886 1.46136 125.535 1.49114 125.419 1.3731C125.303 1.25472 123.763 1.11258 121.999 1.05693C119.573 0.980724 118.591 1.08848 117.972 1.5C117.284 1.95653 117.123 1.96468 116.966 1.55104C116.77 1.03318 115.485 0.942444 114.761 1.39543C114.527 1.54182 114.411 1.78427 114.502 1.93385C114.593 2.08343 114.453 2.51728 114.191 2.89725C113.783 3.48706 112.619 3.70469 111.55 3.39135C111.254 3.30487 113.103 2.56052 113.429 2.63531C113.597 2.67359 113.636 2.44638 113.516 2.12986C113.396 1.81369 113.298 1.40713 113.298 1.22707C113.298 1.03673 112.161 0.986396 110.588 1.10691C107.391 1.35148 107.448 1.35219 106.216 1.0541C105.48 0.875807 105.255 0.950951 105.255 1.3731C105.255 1.86225 105.145 1.86721 104.293 1.4167C102.976 0.720557 100.359 0.765572 99.3214 1.50212C98.7237 1.9264 98.4383 1.9778 98.34 1.67935C98.1368 1.06154 96.3228 1.1661 95.7821 1.82645C95.3589 2.34324 95.2669 2.33225 94.7654 1.70452C94.2968 1.1179 94.146 1.08848 93.7585 1.50886ZM98.2599 2.49884C98.2599 2.79127 98.1025 3.05037 97.9102 3.07483C97.7178 3.09929 97.3975 3.13898 97.1981 3.16344C96.9984 3.1879 96.6861 3.447 96.5039 3.73943C96.0335 4.49335 96.0507 3.54802 96.5235 2.65268C96.9498 1.84523 98.2599 1.72933 98.2599 2.49884ZM79.7242 3.18684C79.7242 3.27297 79.5668 3.44169 79.3744 3.5622C79.1821 3.68271 79.0247 3.61218 79.0247 3.40589C79.0247 3.1996 79.1821 3.03052 79.3744 3.03052C79.5668 3.03052 79.7242 3.1007 79.7242 3.18684ZM69.4225 5.13207C69.0787 5.696 68.5247 5.23663 68.7692 4.59047C68.9038 4.23495 69.0945 4.1669 69.3183 4.39375C69.5068 4.5848 69.5537 4.91692 69.4225 5.13207ZM154.916 4.62556C154.916 4.91798 154.685 5.15724 154.403 5.15724C154.09 5.15724 153.968 4.94953 154.09 4.62556C154.201 4.33313 154.432 4.09388 154.604 4.09388C154.776 4.09388 154.916 4.33313 154.916 4.62556ZM158.563 4.35972C158.39 4.50611 158.129 4.78506 157.986 4.98001C157.837 5.1824 157.723 5.06827 157.719 4.71417C157.717 4.36929 157.973 4.09388 158.297 4.09388C158.618 4.09388 158.738 4.21333 158.563 4.35972ZM67.8333 5.15724C67.8333 5.35218 67.6759 5.51169 67.4836 5.51169C67.2912 5.51169 67.1339 5.35218 67.1339 5.15724C67.1339 4.96229 67.2912 4.80278 67.4836 4.80278C67.6759 4.80278 67.8333 4.96229 67.8333 5.15724ZM78.9299 5.01687C78.8138 5.13455 78.512 5.14731 78.2599 5.04487C77.9808 4.9318 78.0637 4.8478 78.4711 4.83078C78.8397 4.81554 79.0461 4.89919 78.9299 5.01687ZM164.009 5.53863C164.009 5.70628 163.773 5.75201 163.485 5.64C163.196 5.52764 162.96 5.29831 162.96 5.1303C162.96 4.96264 163.196 4.91692 163.485 5.02892C163.773 5.14129 164.009 5.37062 164.009 5.53863ZM171.354 5.15724C171.354 5.35218 171.078 5.50921 170.742 5.50637C170.218 5.50176 170.206 5.45072 170.654 5.15724C171.314 4.7248 171.354 4.7248 171.354 5.15724ZM61.3633 5.86614C61.4822 6.06109 61.4126 6.22059 61.2091 6.22059C61.0055 6.22059 60.8387 6.06109 60.8387 5.86614C60.8387 5.67119 60.9079 5.51169 60.9929 5.51169C61.0779 5.51169 61.2444 5.67119 61.3633 5.86614ZM152.818 5.86614C152.818 6.06109 152.651 6.22059 152.448 6.22059C152.244 6.22059 152.174 6.06109 152.293 5.86614C152.412 5.67119 152.579 5.51169 152.664 5.51169C152.749 5.51169 152.818 5.67119 152.818 5.86614ZM161.546 6.73278C161.863 7.12126 161.877 7.28395 161.593 7.28395C161.371 7.28395 161.099 7.04469 160.988 6.75227C160.878 6.45985 160.568 6.22059 160.3 6.22059C160.032 6.22059 159.813 6.05542 159.813 5.85373C159.813 5.39472 160.902 5.94731 161.546 6.73278ZM156.92 6.08023C156.804 6.19791 156.502 6.21067 156.25 6.10823C155.971 5.99516 156.054 5.91115 156.461 5.89414C156.83 5.8789 157.036 5.96255 156.92 6.08023ZM54.4271 7.16592C53.9714 7.62741 54.2033 8.34731 54.8058 8.34199C55.2899 8.33774 55.3171 8.27181 54.9359 8.02688C54.6708 7.85674 54.5621 7.54022 54.6943 7.32365C54.9587 6.89015 54.7947 6.79339 54.4271 7.16592ZM169.86 8.20694C169.744 8.32462 169.442 8.33738 169.19 8.23494C168.911 8.12187 168.994 8.03787 169.401 8.02085C169.77 8.00561 169.976 8.08926 169.86 8.20694ZM171.004 8.70176C171.004 8.89671 170.847 9.05621 170.654 9.05621C170.462 9.05621 170.305 8.89671 170.305 8.70176C170.305 8.50681 170.462 8.34731 170.654 8.34731C170.847 8.34731 171.004 8.50681 171.004 8.70176ZM174.851 8.87898C174.851 9.17141 174.694 9.41066 174.501 9.41066C174.309 9.41066 174.152 9.17141 174.152 8.87898C174.152 8.58656 174.309 8.34731 174.501 8.34731C174.694 8.34731 174.851 8.58656 174.851 8.87898ZM184.644 9.6088C184.644 9.91257 184.486 10.0629 184.294 9.94234C184.101 9.82183 183.944 9.57336 183.944 9.38975C183.944 9.20614 184.101 9.05621 184.294 9.05621C184.486 9.05621 184.644 9.30504 184.644 9.6088ZM197.584 12.778C197.584 13.0704 197.347 13.3096 197.059 13.3096C196.77 13.3096 196.534 13.0704 196.534 12.778C196.534 12.4855 196.77 12.2463 197.059 12.2463C197.347 12.2463 197.584 12.4855 197.584 12.778ZM209.706 15.8794C209.609 16.1233 209.53 15.9237 209.53 15.4364C209.53 14.949 209.609 14.7498 209.706 14.9933C209.803 15.2371 209.803 15.6359 209.706 15.8794ZM44.9259 20.0442C44.807 20.2392 44.8766 20.3987 45.0802 20.3987C45.2837 20.3987 45.4505 20.2392 45.4505 20.0442C45.4505 19.8493 45.3813 19.6898 45.2963 19.6898C45.2113 19.6898 45.0448 19.8493 44.9259 20.0442ZM40.2598 21.462C40.2598 21.9494 40.3392 22.149 40.4361 21.9051C40.5333 21.6616 40.5333 21.2628 40.4361 21.019C40.3392 20.7755 40.2598 20.9747 40.2598 21.462ZM32.9253 21.8923C32.3804 22.4446 32.3937 22.9819 32.9477 22.7785C33.1883 22.6902 33.6503 22.8518 33.9748 23.1379C34.2994 23.4243 34.732 23.5533 34.9366 23.4253C35.4349 23.1131 35.4101 22.5254 34.8988 22.5254C34.6736 22.5254 34.2305 22.2883 33.9147 21.9987C33.4716 21.5921 33.2453 21.568 32.9253 21.8923ZM28.2214 23.4463C28.1063 23.5629 28.0965 23.8808 28.1997 24.1534C28.3501 24.5507 28.0773 24.6057 26.8228 24.4313C25.8268 24.293 25.1707 24.3583 25.0168 24.6103C24.8839 24.8283 24.942 25.0066 25.1455 25.0066C25.349 25.0066 25.5159 25.3855 25.5159 25.8484C25.5159 26.5101 25.703 26.6902 26.3902 26.6902C27.0061 26.6902 27.2645 26.4974 27.2645 26.038C27.2645 25.3203 28.2385 24.6571 28.9261 24.907C29.2185 25.0133 29.2856 24.8605 29.1289 24.4465C28.9688 24.024 29.0244 23.9085 29.3035 24.0832C29.5287 24.2243 29.7126 24.1878 29.7126 24.002C29.7126 23.8163 29.4636 23.5678 29.1594 23.4495C28.4805 23.1854 28.4784 23.1854 28.2214 23.4463ZM30.4121 24.2059C30.4121 24.8595 31.0584 25.076 31.7208 24.6447C32.2167 24.3214 32.2255 24.2782 31.7663 24.4203C31.4529 24.5174 31.0203 24.4178 30.8045 24.1991C30.5146 23.9053 30.4121 23.9071 30.4121 24.2059ZM22.8929 25.361C22.774 25.556 22.8436 25.7155 23.0471 25.7155C23.2507 25.7155 23.4175 25.9416 23.4175 26.2177C23.4175 26.9454 24.2254 27.1095 24.6863 26.4754C24.9839 26.066 24.9685 25.819 24.6237 25.4698C24.0813 24.9197 23.1958 24.8641 22.8929 25.361ZM20.5322 26.3141C20.1954 26.4035 19.9202 26.7643 19.9202 27.1159C19.9202 27.4675 19.6547 27.9744 19.3302 28.242C18.8164 28.6652 18.7682 28.6517 18.9584 28.1374C19.0882 27.7855 18.9734 27.4675 18.6741 27.3509C18.3978 27.2435 18.1715 27.3101 18.1715 27.4987C18.1715 27.6876 17.9354 27.8422 17.6469 27.8422C17.3584 27.8422 17.1223 27.9967 17.1223 28.1856C17.1223 28.3742 16.9023 28.4433 16.633 28.3384C15.8517 28.0346 15.7538 28.667 16.4676 29.4106C17.045 30.0125 17.1223 30.0231 17.1223 29.4992C17.1223 29.1728 17.3584 28.9055 17.6469 28.9055C17.9354 28.9055 18.1715 29.1558 18.1715 29.462C18.1715 30.3928 19.681 29.9228 19.9583 28.9055C20.1104 28.348 20.2132 28.2494 20.2349 28.6397C20.2741 29.3323 20.8025 29.4663 21.1631 28.8747C21.2922 28.6627 21.6923 28.5674 22.0521 28.6627C22.5865 28.8042 22.6453 28.7212 22.3746 28.2083C22.1924 27.8634 22.1389 27.4842 22.2557 27.3658C22.4882 27.1297 21.7171 26.0448 21.3639 26.111C21.2429 26.1337 20.869 26.2252 20.5322 26.3141ZM22.718 27.4877C22.2697 27.7812 22.2823 27.8323 22.8055 27.8369C23.1422 27.8397 23.4175 27.6827 23.4175 27.4877C23.4175 27.0553 23.378 27.0553 22.718 27.4877ZM13.5565 30.1358C11.756 31.313 11.5672 31.615 12.4884 31.8443C12.8248 31.928 12.5891 31.9318 11.9638 31.8528C10.7873 31.7039 10.3984 32.2076 11.3913 32.5936C11.7494 32.7329 11.8893 33.0707 11.7739 33.5177C11.6739 33.9051 11.7347 34.2223 11.9092 34.2223C12.0834 34.2223 12.2261 33.9033 12.2261 33.5134C12.2261 32.7407 12.4838 32.6443 13.2442 33.132C13.817 33.4996 15.0239 32.8665 15.0239 32.1988C15.0239 31.9443 15.2785 31.8464 15.636 31.963C16.1294 32.124 16.1508 32.0928 15.7458 31.8018C15.3362 31.5072 15.3258 31.3406 15.6888 30.8972C16.05 30.4563 16.0458 30.2319 15.6664 29.708C15.2219 29.0941 15.1177 29.115 13.5565 30.1358ZM6.45552 37.7668C6.57618 37.9646 6.31458 38.1188 5.86413 38.116C5.21433 38.1114 5.15907 38.0433 5.58119 37.7668C6.23204 37.3408 6.19567 37.3408 6.45552 37.7668ZM210.698 46.9826C210.817 47.1775 210.66 47.3371 210.349 47.3371C210.037 47.3371 209.88 47.1775 209.999 46.9826C210.118 46.7877 210.275 46.6281 210.349 46.6281C210.422 46.6281 210.58 46.7877 210.698 46.9826ZM204.699 50.7196C204.585 51.0205 204.417 51.1907 204.325 51.0978C204.233 51.0049 204.262 50.7586 204.389 50.5509C204.734 49.9852 204.935 50.095 204.699 50.7196ZM203.65 52.8463C203.536 53.1472 203.367 53.3174 203.276 53.2245C203.184 53.1316 203.213 52.8853 203.34 52.6776C203.685 52.1119 203.886 52.2218 203.65 52.8463ZM195.485 54.0716C195.485 54.2666 195.318 54.4261 195.115 54.4261C194.911 54.4261 194.842 54.2666 194.961 54.0716C195.079 53.8767 195.246 53.7172 195.331 53.7172C195.416 53.7172 195.485 53.8767 195.485 54.0716ZM196.709 54.0716C196.828 54.2666 196.68 54.4261 196.38 54.4261C196.08 54.4261 195.835 54.2666 195.835 54.0716C195.835 53.8767 195.983 53.7172 196.164 53.7172C196.345 53.7172 196.59 53.8767 196.709 54.0716ZM173.452 61.1607C173.452 61.3556 173.295 61.5151 173.102 61.5151C172.91 61.5151 172.753 61.3556 172.753 61.1607C172.753 60.9657 172.91 60.8062 173.102 60.8062C173.295 60.8062 173.452 60.9657 173.452 61.1607ZM38.223 64.3859C38.3832 64.5074 38.2653 64.7034 37.9607 64.8218C37.5617 64.9771 37.4067 64.8254 37.4067 64.2806C37.4067 63.8645 37.5249 63.6681 37.669 63.8446C37.8131 64.0208 38.0625 64.2646 38.223 64.3859ZM44.3066 64.9193C44.1905 65.037 43.8886 65.0497 43.6365 64.9473C43.3574 64.8342 43.4403 64.7502 43.8477 64.7332C44.2163 64.718 44.4227 64.8016 44.3066 64.9193ZM130.085 66.3002C130.085 66.6058 129.77 66.8319 129.343 66.8319C128.723 66.8319 128.673 66.7444 129.036 66.3002C129.276 66.0078 129.61 65.7686 129.778 65.7686C129.947 65.7686 130.085 66.0078 130.085 66.3002ZM91.7899 66.4775C91.9088 66.6724 91.7514 66.8319 91.4402 66.8319C91.1289 66.8319 90.9715 66.6724 91.0904 66.4775C91.2093 66.2825 91.3667 66.123 91.4402 66.123C91.5136 66.123 91.671 66.2825 91.7899 66.4775ZM77.9755 66.6115C77.9755 66.6848 77.7395 66.9436 77.4509 67.1864C77.0211 67.5479 76.9263 67.5235 76.9263 67.0524C76.9263 66.7362 77.1624 66.4775 77.4509 66.4775C77.7395 66.4775 77.9755 66.5377 77.9755 66.6115ZM101.058 66.6338C101.058 66.7199 100.9 66.8886 100.708 67.0092C100.516 67.1297 100.358 67.0591 100.358 66.8528C100.358 66.6466 100.516 66.4775 100.708 66.4775C100.9 66.4775 101.058 66.5476 101.058 66.6338ZM85.5238 67.5408C85.7966 67.5408 86.0193 67.8598 86.0193 68.2497C86.0193 68.6396 85.9295 68.9586 85.8196 68.9586C85.4178 68.9586 84.7932 68.0541 84.718 67.3636C84.6757 66.9737 84.7281 66.8543 84.8345 67.0978C84.9411 67.3416 85.2513 67.5408 85.5238 67.5408ZM70.9809 68.2497C70.9809 68.7066 71.1579 68.9579 71.4181 68.87C71.6587 68.7889 71.8552 68.5095 71.8552 68.2497C71.8552 67.9899 71.6587 67.7106 71.4181 67.6294C71.1579 67.5415 70.9809 67.7928 70.9809 68.2497ZM93.2528 68.3164C93.1413 68.5989 93.0584 68.5149 93.0416 68.1019C93.0266 67.7283 93.1091 67.5192 93.2252 67.6369C93.3413 67.7546 93.3539 68.0605 93.2528 68.3164ZM94.238 69.3131C94.3569 69.508 94.2086 69.6675 93.9089 69.6675C93.6092 69.6675 93.3637 69.508 93.3637 69.3131C93.3637 69.1181 93.5116 68.9586 93.6928 68.9586C93.874 68.9586 94.1191 69.1181 94.238 69.3131Z" fill="#EF2A10"/>
</svg>
