<svg width="233" height="103" viewBox="0 0 233 103" fill="none" xmlns="http://www.w3.org/2000/svg">
<path d="M195.597 51.0472C185.925 51.8875 176.241 53.0636 166.578 53.5267C122.332 55.489 78.0711 57.2852 33.8412 58.9533C28.8798 59.1335 23.9023 58.6458 18.9554 58.03C15.2791 57.5966 12.0793 55.9089 12.0742 51.5179C12.0727 47.1684 15.1699 45.2681 18.8643 44.9472C34.3963 43.6813 49.9212 42.3324 65.5037 41.6477C101.295 40.0855 137.114 38.8553 173.187 36.6831C171.676 36.1452 170.162 35.5658 168.613 35.0729C159.624 32.2153 150.597 29.4028 141.604 26.5037C140.055 26.0109 138.443 25.2726 137.115 24.4261C134.462 22.7745 134.284 21.2008 134.452 19.7642C134.676 17.528 136.338 16.9236 138.798 16.8353C140.341 16.7849 142.119 16.5468 143.698 16.9114C165.27 22.1053 186.804 27.3443 208.311 32.753C211.006 33.439 213.702 34.6267 216.009 36.1411C221.818 39.9442 221.343 47.4719 215.268 50.7183C198.037 59.8691 180.802 68.9785 163.568 78.0878C162.407 78.6905 161.893 79.028 159.929 79.5332C158.211 79.9752 155.957 78.5818 155.091 77.2768C154.416 76.2481 154.845 73.4922 155.808 72.5303C157.618 70.7419 160.101 69.4805 162.471 68.3545C172.468 63.5545 182.517 58.8754 192.563 54.1548C193.689 53.6387 194.76 52.9602 195.882 52.4026C197.187 51.5364 198.027 51.0871 195.597 51.0472Z" fill="black"/>
</svg>
