<svg width="50" height="50" viewBox="0 0 50 50" fill="none" xmlns="http://www.w3.org/2000/svg">
<path d="M4.89603 19.8958L21.396 28.2292C23.0787 29.0192 25.0258 29.0192 26.7085 28.2292L45.021 19.8958C45.6842 19.5289 46.0958 18.8308 46.0958 18.0729C46.0958 17.315 45.6842 16.6169 45.021 16.25L26.7085 7.91665C25.9104 7.5545 25.0433 7.3697 24.1669 7.37499C23.2059 7.37439 22.2577 7.59539 21.396 8.02082L4.89603 16.3542C4.28308 16.734 3.91016 17.4039 3.91016 18.125C3.91016 18.8461 4.28308 19.5159 4.89603 19.8958Z" fill="#292929"/>
<path d="M44.3544 25L25.9169 32.6875C24.7892 33.2207 23.482 33.2207 22.3544 32.6875L6.02103 25C5.23261 24.645 4.30517 24.9881 3.9377 25.7708C3.76136 26.149 3.74362 26.582 3.88841 26.9733C4.03321 27.3647 4.32851 27.6818 4.70853 27.8542L21.0002 35.4167C22.0125 35.9102 23.124 36.1667 24.2502 36.1667C25.2558 36.1683 26.2502 35.9553 27.1669 35.5417L45.5419 27.8958C46.3415 27.5679 46.724 26.6538 46.396 25.8542C46.0681 25.0545 45.154 24.6721 44.3544 25Z" fill="#292929"/>
<path d="M44.3544 31.4167L25.9169 39.1042C24.7892 39.6374 23.482 39.6374 22.3544 39.1042L6.02103 31.4375C5.51118 31.203 4.91498 31.2584 4.45702 31.5827C3.99905 31.907 3.74889 32.451 3.80077 33.0098C3.85265 33.5686 4.19868 34.0572 4.70853 34.2917L21.0002 41.8333C22.0111 42.3333 23.1224 42.5969 24.2502 42.6042C25.2573 42.5987 26.2516 42.3785 27.1669 41.9583L45.5419 34.3125C45.9368 34.1561 46.251 33.8456 46.4122 33.4525C46.5733 33.0595 46.5675 32.6178 46.396 32.2292C46.053 31.4447 45.1426 31.0824 44.3544 31.4167Z" fill="#292929"/>
</svg>
