<svg width="148" height="71" viewBox="0 0 148 71" fill="none" xmlns="http://www.w3.org/2000/svg">
<path d="M140.996 60.912C137.795 54.805 134.699 48.9577 131.627 43.103C131.009 41.9384 130.574 41.1159 130.04 39.5283C129.631 38.3534 128.818 35.8433 130.171 35.6721C131.303 35.6472 132.11 35.7738 133.381 37.6948C136.638 42.6718 139.128 48.0931 141.628 53.4585C143.832 58.1978 145.44 61.8454 147.143 66.1535C147.938 68.1656 147.168 69.2999 145.201 69.6307C143.435 69.9269 141.629 70.2622 139.84 70.2207C133.392 70.1066 126.972 69.8248 120.518 69.6062C119.716 69.5841 119.089 69.6149 118.139 69.4522C116.989 69.2438 116.141 69.1562 116.116 68.024C116.082 66.9478 117.553 66.5551 118.333 66.5045C124.84 65.9381 138.284 64.9938 138.988 64.7805C135.985 62.2179 133.26 59.7833 130.394 57.4973C110.361 41.6724 89.3693 27.41 65.2501 18.3092C46.158 11.1048 26.5426 6.2853 6.20143 4.4951C5.00087 4.38166 3.79518 4.16375 2.63803 3.93114C1.06526 3.63889 0.298762 3.20844 0.393765 2.38453C0.780908 0.862523 1.89837 0.789098 2.78484 0.653116C4.55043 0.356874 6.40204 0.432147 8.19775 0.497847C32.2084 1.62716 54.8993 8.11255 76.8329 17.6103C99.3454 27.3568 118.753 41.7279 137.006 57.8005C137.936 58.6848 140.442 60.6559 140.996 60.912Z" fill="black"/>
</svg>
