<svg width="200" height="200" viewBox="0 0 200 200" fill="none" xmlns="http://www.w3.org/2000/svg">
<rect width="200" height="199.468" fill="white"/>
<ellipse cx="58.6" cy="63.5896" rx="21" ry="21.084" transform="rotate(-180 58.6 63.5896)" fill="#4B9BE4"/>
<path d="M15.0002 64.192C15.0002 40.3189 34.2708 21 58.0002 21C81.7297 21 101 40.3189 101 64.192C101 88.0651 81.7297 107.384 58.0002 107.384C34.2708 107.384 15.0002 88.0651 15.0002 64.192Z" stroke="#343434" stroke-width="10"/>
<ellipse cx="142.6" cy="63.5896" rx="21" ry="21.084" transform="rotate(-180 142.6 63.5896)" fill="#4B9BE4"/>
<path d="M99 64.192C99 40.3189 118.271 21 142 21C165.729 21 185 40.3189 185 64.192C185 88.0651 165.729 107.384 142 107.384C118.271 107.384 99 88.0651 99 64.192Z" stroke="#343434" stroke-width="10"/>
<ellipse cx="100.6" cy="137.082" rx="21" ry="21.084" transform="rotate(-180 100.6 137.082)" fill="#4B9BE4"/>
<path d="M57 135.275C57 111.402 76.2706 92.0832 100 92.0832C123.729 92.0832 143 111.402 143 135.275C143 159.148 123.729 178.467 100 178.467C76.2706 178.467 57 159.148 57 135.275Z" stroke="#343434" stroke-width="10"/>
<ellipse cx="94.5999" cy="63.5895" rx="9" ry="9.036" transform="rotate(-180 94.5999 63.5895)" fill="#4B9BE4"/>
<ellipse cx="106.6" cy="63.5895" rx="9" ry="9.036" transform="rotate(-180 106.6 63.5895)" fill="#4B9BE4"/>
<ellipse cx="9.02702" cy="9.00902" rx="9.02702" ry="9.00902" transform="matrix(-0.498504 0.866888 -0.865159 -0.501498 131.065 103.621)" fill="#4B9BE4"/>
<ellipse cx="9.02702" cy="9.00902" rx="9.02702" ry="9.00902" transform="matrix(-0.498504 0.866888 -0.865159 -0.501498 137.065 93.1873)" fill="#4B9BE4"/>
<ellipse cx="9.02702" cy="9.00902" rx="9.02702" ry="9.00902" transform="matrix(0.498504 0.866888 0.865159 -0.501498 71.6766 103.621)" fill="#4B9BE4"/>
<ellipse cx="9.02702" cy="9.00902" rx="9.02702" ry="9.00902" transform="matrix(0.498504 0.866888 0.865159 -0.501498 65.6764 93.1873)" fill="#4B9BE4"/>
</svg>
