<svg width="250" height="185" viewBox="0 0 250 185" fill="none" xmlns="http://www.w3.org/2000/svg">
<rect width="250" height="184.886" fill="white"/>
<path d="M60.5973 33.2986C60.5973 48.9275 47.9275 61.5972 32.2986 61.5972C16.6697 61.5972 4 48.9275 4 33.2986C4 17.6697 16.6697 5 32.2986 5C47.9275 5 60.5973 17.6697 60.5973 33.2986Z" stroke="#343434" stroke-width="8"/>
<ellipse cx="33.1379" cy="32.8792" rx="12.1644" ry="11.745" fill="#4B9BE4"/>
<path d="M122.678 33.2986C122.678 48.9275 110.008 61.5972 94.3791 61.5972C78.7502 61.5972 66.0804 48.9275 66.0804 33.2986C66.0804 17.6697 78.7502 5 94.3791 5C110.008 5 122.678 17.6697 122.678 33.2986Z" stroke="#343434" stroke-width="8"/>
<ellipse cx="94.7985" cy="32.8792" rx="11.745" ry="11.745" fill="#4B9BE4"/>
<ellipse cx="67.5338" cy="33.2986" rx="7.13087" ry="7.13087" fill="#4B9BE4"/>
<ellipse cx="59.1441" cy="33.2986" rx="7.13087" ry="7.13087" fill="#4B9BE4"/>
<path d="M183.919 33.2986C183.919 48.9275 171.249 61.5972 155.62 61.5972C139.992 61.5972 127.322 48.9275 127.322 33.2986C127.322 17.6697 139.992 5 155.62 5C171.249 5 183.919 17.6697 183.919 33.2986Z" stroke="#343434" stroke-width="8"/>
<ellipse cx="156.46" cy="32.8792" rx="12.1644" ry="11.745" fill="#4B9BE4"/>
<ellipse cx="129.194" cy="33.2986" rx="6.7114" ry="7.13087" fill="#4B9BE4"/>
<path d="M246 33.2986C246 48.9275 233.33 61.5972 217.702 61.5972C202.073 61.5972 189.403 48.9275 189.403 33.2986C189.403 17.6697 202.073 5 217.702 5C233.33 5 246 17.6697 246 33.2986Z" stroke="#343434" stroke-width="8"/>
<ellipse cx="218.54" cy="32.8792" rx="12.1644" ry="11.745" fill="#4B9BE4"/>
<ellipse cx="190.856" cy="33.2986" rx="7.13087" ry="7.13087" fill="#4B9BE4"/>
<ellipse cx="182.466" cy="33.2986" rx="7.13087" ry="7.13087" fill="#4B9BE4"/>
<ellipse cx="120.805" cy="33.2986" rx="6.7114" ry="7.13087" fill="#4B9BE4"/>
<path d="M60.5973 92.4427C60.5973 108.352 47.879 121.161 32.2986 121.161C16.7182 121.161 4 108.352 4 92.4427C4 76.5333 16.7182 63.7246 32.2986 63.7246C47.879 63.7246 60.5973 76.5333 60.5973 92.4427Z" stroke="#343434" stroke-width="8"/>
<ellipse cx="33.1379" cy="91.6038" rx="12.1644" ry="11.745" fill="#4B9BE4"/>
<ellipse cx="32.2987" cy="66.0169" rx="7.13087" ry="7.13087" fill="#4B9BE4"/>
<path d="M122.678 92.4427C122.678 108.352 109.959 121.161 94.3791 121.161C78.7987 121.161 66.0804 108.352 66.0804 92.4427C66.0804 76.5333 78.7987 63.7246 94.3791 63.7246C109.959 63.7246 122.678 76.5333 122.678 92.4427Z" stroke="#343434" stroke-width="8"/>
<ellipse cx="94.7985" cy="91.6038" rx="11.745" ry="11.745" fill="#4B9BE4"/>
<ellipse cx="67.5338" cy="92.4428" rx="7.13087" ry="6.7114" fill="#4B9BE4"/>
<ellipse cx="94.3788" cy="66.0169" rx="7.13087" ry="7.13087" fill="#4B9BE4"/>
<ellipse cx="59.1441" cy="92.4428" rx="7.13087" ry="6.7114" fill="#4B9BE4"/>
<path d="M183.919 92.4427C183.919 108.352 171.201 121.161 155.62 121.161C140.04 121.161 127.322 108.352 127.322 92.4427C127.322 76.5333 140.04 63.7246 155.62 63.7246C171.201 63.7246 183.919 76.5333 183.919 92.4427Z" stroke="#343434" stroke-width="8"/>
<ellipse cx="156.46" cy="91.6038" rx="12.1644" ry="11.745" fill="#4B9BE4"/>
<ellipse cx="129.194" cy="92.4428" rx="6.7114" ry="6.7114" fill="#4B9BE4"/>
<ellipse cx="155.62" cy="66.0169" rx="7.13087" ry="7.13087" fill="#4B9BE4"/>
<path d="M246 92.4427C246 108.352 233.282 121.161 217.702 121.161C202.121 121.161 189.403 108.352 189.403 92.4427C189.403 76.5333 202.121 63.7246 217.702 63.7246C233.282 63.7246 246 76.5333 246 92.4427Z" stroke="#343434" stroke-width="8"/>
<ellipse cx="218.54" cy="91.6038" rx="12.1644" ry="11.745" fill="#4B9BE4"/>
<ellipse cx="190.856" cy="92.4428" rx="7.13087" ry="6.7114" fill="#4B9BE4"/>
<ellipse cx="217.701" cy="66.0169" rx="7.13087" ry="7.13087" fill="#4B9BE4"/>
<ellipse cx="182.466" cy="92.4428" rx="7.13087" ry="6.7114" fill="#4B9BE4"/>
<ellipse cx="120.805" cy="92.4428" rx="6.7114" ry="6.7114" fill="#4B9BE4"/>
<ellipse cx="32.2987" cy="60.1443" rx="7.13087" ry="7.13087" fill="#4B9BE4"/>
<ellipse cx="94.3788" cy="60.1443" rx="7.13087" ry="7.13087" fill="#4B9BE4"/>
<ellipse cx="155.62" cy="60.1443" rx="7.13087" ry="7.13087" fill="#4B9BE4"/>
<ellipse cx="217.701" cy="60.1443" rx="7.13087" ry="7.13087" fill="#4B9BE4"/>
<path d="M60.5973 151.587C60.5973 167.216 47.9275 179.886 32.2986 179.886C16.6697 179.886 4 167.216 4 151.587C4 135.958 16.6697 123.288 32.2986 123.288C47.9275 123.288 60.5973 135.958 60.5973 151.587Z" stroke="#343434" stroke-width="8"/>
<ellipse cx="33.1379" cy="150.748" rx="12.1644" ry="12.1644" fill="#4B9BE4"/>
<ellipse cx="32.2987" cy="124.741" rx="7.13087" ry="7.13087" fill="#4B9BE4"/>
<path d="M122.678 151.587C122.678 167.216 110.008 179.886 94.3791 179.886C78.7502 179.886 66.0804 167.216 66.0804 151.587C66.0804 135.958 78.7502 123.288 94.3791 123.288C110.008 123.288 122.678 135.958 122.678 151.587Z" stroke="#343434" stroke-width="8"/>
<ellipse cx="94.7985" cy="150.748" rx="11.745" ry="12.1644" fill="#4B9BE4"/>
<ellipse cx="67.5338" cy="151.587" rx="7.13087" ry="7.13087" fill="#4B9BE4"/>
<ellipse cx="94.3788" cy="124.741" rx="7.13087" ry="7.13087" fill="#4B9BE4"/>
<ellipse cx="59.1441" cy="151.587" rx="7.13087" ry="7.13087" fill="#4B9BE4"/>
<path d="M183.919 151.587C183.919 167.216 171.249 179.886 155.62 179.886C139.992 179.886 127.322 167.216 127.322 151.587C127.322 135.958 139.992 123.288 155.62 123.288C171.249 123.288 183.919 135.958 183.919 151.587Z" stroke="#343434" stroke-width="8"/>
<ellipse cx="156.46" cy="150.748" rx="12.1644" ry="12.1644" fill="#4B9BE4"/>
<ellipse cx="129.194" cy="151.587" rx="6.7114" ry="7.13087" fill="#4B9BE4"/>
<ellipse cx="155.62" cy="124.741" rx="7.13087" ry="7.13087" fill="#4B9BE4"/>
<path d="M246 151.587C246 167.216 233.33 179.886 217.702 179.886C202.073 179.886 189.403 167.216 189.403 151.587C189.403 135.958 202.073 123.288 217.702 123.288C233.33 123.288 246 135.958 246 151.587Z" stroke="#343434" stroke-width="8"/>
<ellipse cx="218.54" cy="150.748" rx="12.1644" ry="12.1644" fill="#4B9BE4"/>
<ellipse cx="190.856" cy="151.587" rx="7.13087" ry="7.13087" fill="#4B9BE4"/>
<ellipse cx="217.701" cy="124.741" rx="7.13087" ry="7.13087" fill="#4B9BE4"/>
<ellipse cx="182.466" cy="151.587" rx="7.13087" ry="7.13087" fill="#4B9BE4"/>
<ellipse cx="120.805" cy="151.587" rx="6.7114" ry="7.13087" fill="#4B9BE4"/>
<ellipse cx="32.2987" cy="118.869" rx="7.13087" ry="7.13087" fill="#4B9BE4"/>
<ellipse cx="94.3788" cy="118.869" rx="7.13087" ry="7.13087" fill="#4B9BE4"/>
<ellipse cx="155.62" cy="118.869" rx="7.13087" ry="7.13087" fill="#4B9BE4"/>
<ellipse cx="217.701" cy="118.869" rx="7.13087" ry="7.13087" fill="#4B9BE4"/>
</svg>
