<svg width="125" height="125" viewBox="0 0 125 125" fill="none" xmlns="http://www.w3.org/2000/svg">
<circle cx="62.5" cy="62.5" r="62.5" fill="#181717"/>
<path d="M8.79309 94.4847C16.4013 107.231 28.4195 117.039 42.7423 121.808C45.8693 122.38 47.0089 120.45 47.0089 118.792C47.0089 118.106 46.9973 116.893 46.9819 115.271C46.964 113.392 46.9409 110.962 46.9244 108.164C29.5398 111.94 25.8718 99.7844 25.8718 99.7844C23.0287 92.5674 18.9309 90.6451 18.9309 90.6451C13.2563 86.7661 19.3607 86.8428 19.3607 86.8428C25.6339 87.2879 28.9336 93.2849 28.9336 93.2849C34.5085 102.835 43.5634 100.076 47.1239 98.4799C47.6918 94.4397 49.3033 91.6849 51.0912 90.1233C37.2134 88.5464 22.622 83.1825 22.622 59.233C22.622 52.4111 25.0584 46.8324 29.0563 42.4622C28.4117 40.8815 26.267 34.5277 29.6664 25.9217C29.6664 25.9217 34.9152 24.2412 46.8554 32.3292C51.8394 30.9441 57.1879 30.2496 62.502 30.2266C67.8083 30.2496 73.1568 30.9441 78.1485 32.3292C90.0811 24.2412 95.3183 25.9217 95.3183 25.9217C98.7293 34.5277 96.5845 40.8815 95.9399 42.4622C99.9456 46.8324 102.367 52.4111 102.367 59.233C102.367 83.2439 87.7521 88.5272 73.8283 90.0734C76.0728 92.0034 78.0718 95.8172 78.0718 101.649C78.0718 107.235 78.0375 112.101 78.0147 115.324C78.0035 116.92 77.9951 118.113 77.9951 118.792C77.9951 120.465 79.1193 122.41 82.2923 121.8C93.7021 117.992 103.648 110.986 111.064 101.845C99.6054 115.971 82.1071 125 62.5 125C39.6708 125 19.7003 112.76 8.79309 94.4847Z" fill="white"/>
</svg>
