<svg width="84" height="84" viewBox="0 0 84 84" fill="none" xmlns="http://www.w3.org/2000/svg">
<circle cx="41.6667" cy="41.6667" r="41.6667" fill="#C13584"/>
<path d="M41.6666 21.1715C48.3418 21.1715 49.1325 21.197 51.7686 21.3173C54.2061 21.4284 55.5299 21.8357 56.4108 22.178C57.5777 22.6316 58.4105 23.1733 59.2853 24.0481C60.1602 24.9229 60.7019 25.7557 61.1554 26.9227C61.4978 27.8036 61.9051 29.1273 62.0162 31.5648C62.1365 34.2009 62.162 34.9917 62.162 41.6669C62.162 48.3422 62.1365 49.1329 62.0162 51.769C61.9051 54.2065 61.4978 55.5302 61.1554 56.4111C60.7019 57.5781 60.1602 58.4109 59.2854 59.2857C58.4105 60.1605 57.5777 60.7023 56.4108 61.1558C55.5299 61.4981 54.2061 61.9054 51.7686 62.0166C49.1329 62.1368 48.3423 62.1623 41.6666 62.1623C34.9907 62.1623 34.2002 62.1368 31.5644 62.0166C29.1269 61.9054 27.8032 61.4981 26.9222 61.1558C25.7553 60.7023 24.9225 60.1605 24.0477 59.2857C23.1729 58.4109 22.6311 57.5781 22.1776 56.4111C21.8352 55.5302 21.4279 54.2065 21.3168 51.769C21.1965 49.1329 21.171 48.3422 21.171 41.6669C21.171 34.9917 21.1965 34.2009 21.3168 31.5648C21.4279 29.1273 21.8352 27.8036 22.1776 26.9227C22.6311 25.7557 23.1728 24.9229 24.0477 24.0482C24.9225 23.1733 25.7553 22.6316 26.9222 22.178C27.8032 21.8357 29.1269 21.4284 31.5644 21.3173C34.2005 21.197 34.9912 21.1715 41.6666 21.1715ZM41.6666 16.667C34.8769 16.667 34.0256 16.6958 31.359 16.8174C28.6981 16.9388 26.8807 17.3615 25.2906 17.9794C23.6466 18.6183 22.2524 19.4731 20.8625 20.8629C19.4726 22.2529 18.6178 23.647 17.979 25.291C17.361 26.8812 16.9383 28.6985 16.8169 31.3595C16.6953 34.026 16.6665 34.8773 16.6665 41.6669C16.6665 48.4565 16.6953 49.3078 16.8169 51.9743C16.9383 54.6353 17.361 56.4526 17.979 58.0428C18.6178 59.6868 19.4726 61.081 20.8625 62.4709C22.2524 63.8607 23.6466 64.7155 25.2906 65.3543C26.8807 65.9724 28.6981 66.395 31.359 66.5164C34.0256 66.638 34.8769 66.6668 41.6666 66.6668C48.4561 66.6668 49.3075 66.638 51.974 66.5164C54.6349 66.395 56.4523 65.9724 58.0425 65.3543C59.6864 64.7155 61.0806 63.8607 62.4705 62.4709C63.8604 61.081 64.7152 59.6868 65.3541 58.0428C65.972 56.4526 66.3947 54.6353 66.5161 51.9743C66.6377 49.3078 66.6665 48.4565 66.6665 41.6669C66.6665 34.8773 66.6377 34.026 66.5161 31.3595C66.3947 28.6985 65.972 26.8812 65.3541 25.291C64.7152 23.647 63.8604 22.2529 62.4705 20.8629C61.0806 19.4731 59.6864 18.6183 58.0425 17.9794C56.4523 17.3615 54.6349 16.9388 51.974 16.8174C49.3075 16.6958 48.4561 16.667 41.6666 16.667Z" fill="white"/>
<path d="M41.6782 28.8408C34.588 28.8408 28.8403 34.5884 28.8403 41.6786C28.8403 48.7688 34.588 54.5164 41.6782 54.5164C48.7683 54.5164 54.516 48.7688 54.516 41.6786C54.516 34.5884 48.7683 28.8408 41.6782 28.8408ZM41.6782 50.0119C37.0758 50.0119 33.3448 46.281 33.3448 41.6786C33.3448 37.0762 37.0758 33.3453 41.6782 33.3453C46.2806 33.3453 50.0115 37.0762 50.0115 41.6786C50.0115 46.281 46.2806 50.0119 41.6782 50.0119Z" fill="white"/>
<path d="M58.0223 28.3257C58.0223 29.9825 56.6792 31.3257 55.0223 31.3257C53.3655 31.3257 52.0223 29.9825 52.0223 28.3257C52.0223 26.6689 53.3655 25.3257 55.0223 25.3257C56.6792 25.3257 58.0223 26.6689 58.0223 28.3257Z" fill="white"/>
</svg>
