<svg width="100" height="100" viewBox="0 0 100 100" fill="none" xmlns="http://www.w3.org/2000/svg">
<circle cx="50" cy="50" r="50" fill="#0077B5"/>
<path fill-rule="evenodd" clip-rule="evenodd" d="M36.9369 25.7097C36.9369 28.8224 34.5668 31.3415 30.8604 31.3415C27.2984 31.3415 24.9283 28.8224 25.0017 25.7097C24.9283 22.4457 27.2983 20 30.9314 20C34.5667 20 36.8658 22.4457 36.9369 25.7097ZM25.2996 72.0476V35.7905H36.5678V72.0453H25.2996V72.0476Z" fill="white"/>
<path fill-rule="evenodd" clip-rule="evenodd" d="M45.5994 47.3613C45.5994 42.8389 45.4504 38.9835 45.3014 35.7951H55.0888L55.6091 40.7622H55.8315C57.3145 38.4632 61.0209 34.9814 67.0264 34.9814C74.4392 34.9814 79.9999 39.8752 79.9999 50.5474V72.0522H68.7317V51.9593C68.7317 47.2856 67.102 44.0996 63.0243 44.0996C59.9092 44.0996 58.0572 46.2496 57.3168 48.324C57.0189 49.0666 56.8722 50.1027 56.8722 51.1433V72.0522H45.6039V47.3613H45.5994Z" fill="white"/>
</svg>
