<svg width="85" height="309" viewBox="0 0 85 309" fill="none" xmlns="http://www.w3.org/2000/svg">
<path fill-rule="evenodd" clip-rule="evenodd" d="M14.8639 0.608738C14.2538 0.899725 13.4332 1.44007 13.0403 1.80939C12.6473 2.17872 11.8005 2.8574 11.1583 3.3176C10.2612 3.96001 10.0858 4.33292 10.4009 4.92519C10.6265 5.34914 11.1027 6.54845 11.4596 7.59019C12.0279 9.24971 12.0279 9.45295 11.4587 9.23314C10.691 8.93678 11.0074 9.61635 12.3225 11.0865C12.812 11.6336 13.2414 12.5401 13.2766 13.101C13.3816 14.7816 14.0024 17.5979 14.6494 19.3299C14.9841 20.2253 15.1443 21.0718 15.0055 21.2115C14.5484 21.6713 15.2858 23.6536 16.4175 25.006C17.3284 26.0952 17.409 26.3826 16.8625 26.5934C16.057 26.9041 15.9676 28.2221 16.7517 28.2221C17.0894 28.2221 17.295 28.7937 17.275 29.677C17.2568 30.477 17.6217 31.7837 18.0863 32.581C18.5509 33.3779 18.8722 34.4859 18.8005 35.0432C18.7289 35.6001 18.8343 36.3213 19.035 36.6459C19.2357 36.97 19.2811 37.3541 19.1365 37.5001C18.9919 37.6456 19.0965 38.035 19.3688 38.3654C19.7333 38.8073 19.7324 38.9662 19.3648 38.9662C18.736 38.9662 18.7017 41.5228 19.3279 41.7328C19.634 41.8353 19.5878 42.4907 19.1908 43.6726C18.8615 44.6543 18.6377 46.1625 18.6942 47.0243C18.7507 47.8861 18.8125 48.8647 18.8312 49.1991C18.8553 49.6279 19.2264 49.7255 20.0893 49.5295L21.3131 49.2519L19.978 50.4185C19.1565 51.1366 18.8477 51.6662 19.1752 51.796C19.6861 51.9988 19.6056 56.1532 19.0609 57.7214C18.9416 58.0648 19.1966 58.7376 19.6278 59.2166C20.3768 60.0493 20.3745 60.1147 19.5753 60.7025C18.3929 61.5723 18.4717 64.4942 19.7181 66.0051C20.2063 66.597 20.2077 66.8454 19.7262 67.4292C19.0306 68.2722 18.7671 76.9042 19.4244 77.3129C19.691 77.4785 19.6817 77.6827 19.4 77.8582C18.9954 78.1093 18.708 80.422 18.8223 82.5023C18.8459 82.9334 19.1659 83.2857 19.533 83.2857C19.9002 83.2857 20.2005 83.5879 20.2005 83.9572C20.2005 84.3266 19.9002 84.6288 19.533 84.6288C18.6973 84.6288 18.6448 86.3626 19.4712 86.6813C20.3919 87.0368 20.4787 93.1345 19.5633 93.1345C19.1507 93.1345 18.9919 93.3924 19.1494 93.806C19.2905 94.1754 19.1904 94.4775 18.9269 94.4775C18.376 94.4775 18.7854 95.8604 19.5005 96.4142C19.8325 96.6711 19.808 96.8533 19.4218 97.0109C18.7222 97.2965 18.6879 98.5066 19.3795 98.5066C19.6817 98.5066 19.5815 98.8535 19.1361 99.3487C18.4539 100.107 18.4467 100.26 19.0631 100.88C19.4988 101.318 19.5704 101.628 19.2607 101.732C18.93 101.843 18.9999 102.44 19.4769 103.589C20.0866 105.056 20.0969 105.414 19.5562 106.26C19.2126 106.797 18.7943 107.992 18.6265 108.915C18.3528 110.422 18.4178 110.594 19.2611 110.594C20.2891 110.594 20.4088 110.912 19.7649 111.937C19.4632 112.417 19.5441 112.679 20.0488 112.857C20.6892 113.083 20.6874 113.174 20.0292 113.836C19.63 114.237 19.4867 114.68 19.7101 114.818C20.3073 115.19 19.7555 116.861 19.0359 116.861C18.2589 116.861 18.2643 116.949 19.1539 118.826C19.8352 120.263 19.8352 120.426 19.1548 121.11C18.578 121.691 18.526 122.043 18.9109 122.766C19.2829 123.466 19.2722 123.605 18.8655 123.352C18.4539 123.096 18.4494 123.242 18.8459 123.987C19.1285 124.518 19.2171 125.399 19.0426 125.944C18.8682 126.488 18.6764 127.531 18.6172 128.262C18.5575 128.993 18.2888 129.664 18.0195 129.754C17.3182 129.99 17.4161 130.765 18.267 131.711C18.9527 132.473 18.9518 132.53 18.2585 132.53C17.6862 132.53 17.5781 132.789 17.7926 133.649C17.9648 134.338 17.8825 134.768 17.5785 134.768C17.3075 134.768 17.0854 135.372 17.0854 136.111C17.0854 136.85 17.255 137.454 17.4619 137.454C17.6693 137.454 17.4757 138.512 17.032 139.804C16.2003 142.228 16.3076 144.966 17.2608 145.633C17.5968 145.868 17.4989 146.172 16.9537 146.592C16.3841 147.031 16.2364 147.536 16.4393 148.349C16.5959 148.977 16.5741 149.735 16.3908 150.033C16.2074 150.331 16.017 151.794 15.9676 153.283C15.916 154.84 15.6618 156.062 15.369 156.161C15.0891 156.254 14.8604 156.806 14.8604 157.386C14.8604 157.967 14.6739 158.558 14.4465 158.699C13.9944 158.98 14.0638 160.694 14.56 161.502C14.7313 161.781 14.621 162.562 14.3148 163.238C13.8662 164.229 13.8689 164.504 14.3277 164.658C14.7585 164.802 14.774 164.999 14.3913 165.463C14.1128 165.8 13.8057 167.04 13.7087 168.217C13.431 171.581 13.2009 172.951 12.6945 174.26C12.3265 175.21 12.3674 175.62 12.881 176.137C13.4363 176.696 13.4426 176.854 12.9197 177.159C11.9206 177.744 11.7791 180.862 12.6451 183.206C13.3909 185.223 13.3896 185.34 12.6126 186.047C11.5441 187.02 10.7008 189.384 11.4226 189.384C11.7088 189.384 11.4983 189.698 10.9545 190.081C9.82772 190.875 9.63458 192.07 10.6327 192.07C11.4823 192.07 11.476 192.84 10.6123 194.506C10.2233 195.257 9.90826 197.086 9.87978 198.759C9.84418 200.886 9.63413 201.842 9.11881 202.227C8.4771 202.707 8.49312 202.823 9.28569 203.413C10.0257 203.965 10.0836 204.232 9.65416 205.119C8.81131 206.86 8.55231 208.634 9.14106 208.634C9.43121 208.634 9.53668 208.766 9.37558 208.929C9.21449 209.091 9.32396 209.515 9.61856 209.872C10.0453 210.39 9.99949 210.635 9.39205 211.082C8.97329 211.39 8.63018 211.961 8.63018 212.35C8.63018 212.74 8.46375 213.161 8.26082 213.288C7.83672 213.551 7.93552 216.741 8.4277 218.664C8.66623 219.598 8.57411 220.104 8.10151 220.455C7.21326 221.115 6.75623 224.135 7.43488 224.859C8.07036 225.536 8.2448 226.988 7.69076 226.988C7.47315 226.988 7.29514 227.291 7.29514 227.66C7.29514 228.029 6.98986 228.332 6.61694 228.332C6.03753 228.332 5.96411 229.115 6.1123 233.714C6.20709 236.675 6.13855 239.188 5.95921 239.3C5.45145 239.616 4.9873 243.35 4.8538 248.193C4.77103 251.2 4.54941 252.724 4.15913 252.966C3.78132 253.201 3.6131 254.214 3.66472 255.936C3.70833 257.38 3.48271 259.05 3.16052 259.669C2.75645 260.445 2.69993 261.199 2.97584 262.131C3.19479 262.869 3.53789 264.028 3.7386 264.705C3.94909 265.417 3.93129 265.936 3.69632 265.936C3.47292 265.936 3.29002 266.516 3.29002 267.224C3.29002 267.933 2.9656 268.783 2.56954 269.114C1.99325 269.595 1.90247 270.234 2.11741 272.302C2.3368 274.413 2.26471 274.889 1.7258 274.889C0.982625 274.889 0.825535 276.031 1.50997 276.456C2.20953 276.891 2.02974 278.47 1.24652 278.773C0.684909 278.989 0.596798 279.443 0.822865 280.957C0.990635 282.082 0.922547 282.983 0.658209 283.148C0.363165 283.331 0.356046 283.816 0.63685 284.56C1.17799 285.99 1.18288 286.655 0.650644 286.324C-0.180641 285.807 -0.228703 286.888 0.583447 287.83C1.37335 288.746 1.39115 290.558 0.610591 290.558C0.181153 290.558 0.62083 294.274 1.08676 294.587C1.2701 294.71 1.49039 295.314 1.57627 295.93C1.69153 296.756 1.9661 297.015 2.6225 296.919C3.34743 296.812 3.3897 296.871 2.84901 297.235C2.27094 297.625 2.29675 297.872 3.04927 299.157C3.52454 299.967 4.2735 301.021 4.71406 301.499C5.15463 301.976 5.51509 302.514 5.51509 302.694C5.51509 302.874 6.12921 303.157 6.88039 303.323C7.63113 303.489 8.35339 303.908 8.48556 304.254C8.63464 304.646 9.38003 304.883 10.4579 304.883C11.4106 304.883 12.1903 305.085 12.1903 305.331C12.1903 305.931 14.2845 305.906 14.6557 305.302C14.8497 304.986 15.2133 305.066 15.7304 305.537C16.1723 305.939 16.8367 306.123 17.2603 305.959C17.7022 305.789 18.3791 306.008 18.9136 306.494C19.8739 307.369 21.2708 307.569 22.5097 307.01C22.9231 306.824 23.3855 306.874 23.5373 307.121C23.9658 307.818 24.838 307.654 25.878 306.679C26.7676 305.846 28.2108 305.855 28.2108 306.694C28.2108 306.899 28.561 307.082 28.9896 307.102C37.8035 307.501 40.7993 307.523 40.2898 307.186C39.9182 306.94 39.8572 306.68 40.1318 306.509C40.3775 306.356 40.6894 306.524 40.8256 306.881C40.9885 307.308 41.729 307.532 42.9861 307.536C49.0855 307.553 50.1638 307.617 50.8962 308.011C51.4823 308.327 51.857 308.259 52.266 307.763C52.5757 307.388 53.0915 307.182 53.4123 307.306C53.7332 307.43 54.3019 307.223 54.6762 306.847C55.0504 306.47 55.3579 306.328 55.3593 306.53C55.3611 306.732 55.9752 307.249 56.7237 307.677C57.9875 308.401 58.1856 308.405 59.4748 307.734C60.5352 307.183 61.051 307.129 61.6531 307.507C62.0866 307.78 62.7296 307.891 63.0816 307.756C63.4336 307.62 63.8542 307.724 64.0157 307.987C64.3406 308.515 68.2958 308.559 70.0421 308.053C70.6856 307.867 72.0927 308.01 73.3797 308.393C75.2385 308.946 78.0154 309.102 83.0725 308.938C85.7555 308.851 82.8411 305.195 79.6842 304.688C78.7158 304.532 77.371 304.009 76.6955 303.525C75.3529 302.563 74.4922 302.394 74.4922 303.093C74.4922 303.736 73.4571 303.645 71.9841 302.872C71.2832 302.504 70.3923 302.202 70.0051 302.2C69.6175 302.199 69.1503 302.047 68.9665 301.862C68.7831 301.677 68.0987 301.481 67.4463 301.426C66.7935 301.371 65.4086 301.198 64.3681 301.043C62.7648 300.803 62.4768 300.878 62.4768 301.534C62.4768 302.091 62.3211 302.183 61.9206 301.863C60.0457 300.366 54.9116 300.156 54.9116 301.576C54.9116 302.402 54.4621 302.363 53.8213 301.481C53.5347 301.086 52.6683 300.714 51.8957 300.653C51.1232 300.591 50.1691 300.272 49.7748 299.943C49.3138 299.558 48.9515 299.506 48.7588 299.797C48.5937 300.045 48.1082 300.378 47.6801 300.537C47.2516 300.696 46.9014 301.135 46.9014 301.512C46.9014 301.889 46.7011 302.197 46.4563 302.197C46.2116 302.197 46.0113 301.593 46.0113 300.854C46.0113 299.316 45.4693 299.182 43.4151 300.213C42.6466 300.599 41.8033 300.781 41.5416 300.619C40.9052 300.223 38.9294 299.906 37.5561 299.979C36.9442 300.011 36.1432 300.024 35.776 300.007C34.8789 299.967 28.2344 300.058 27.0239 300.127C25.9719 300.188 25.0205 300.854 25.9857 300.854C26.3119 300.854 26.4672 300.967 26.3302 301.105C26.1931 301.243 25.3115 300.94 24.3712 300.433C22.1599 299.241 21.3616 299.241 21.6713 300.432C21.852 301.128 21.7754 301.24 21.3598 300.894C21.0572 300.641 19.6211 300.296 18.1686 300.127C16.7161 299.958 15.0971 299.539 14.5711 299.195C13.7972 298.691 13.5752 298.683 13.4105 299.153C13.2534 299.603 12.8827 299.548 11.7778 298.908C10.9919 298.453 10.2305 298.2 10.0854 298.346C9.94075 298.491 9.54291 298.209 9.20114 297.718C8.85937 297.227 8.34093 296.819 8.04855 296.811C7.27111 296.791 6.14745 295.033 5.81236 293.313C5.5676 292.058 5.66372 291.778 6.40778 291.582C7.51542 291.291 7.51498 290.979 6.40512 288.991C5.9156 288.115 5.52933 287.151 5.54624 286.851C5.56359 286.551 5.74961 286.708 5.9601 287.2L6.34237 288.096L6.44161 287.2C6.4959 286.708 6.56532 286.104 6.59603 285.857C6.62629 285.611 6.84479 285.108 7.08109 284.738C7.31739 284.369 7.54969 283.059 7.59686 281.828C7.64448 280.597 7.81536 278.858 7.9769 277.964C8.15847 276.959 8.08415 276.223 7.78288 276.035C7.12114 275.624 7.1652 274.889 7.85141 274.889C8.25637 274.889 8.43927 273.526 8.52338 269.883C8.61327 265.984 8.80107 264.698 9.37113 264.064C9.89269 263.484 9.93852 263.25 9.53089 263.25C8.94881 263.25 8.96706 263.01 9.89892 258.454C10.1463 257.244 10.125 256.514 9.83884 256.418C9.55136 256.321 9.57317 255.929 9.89981 255.315C10.1788 254.79 10.2852 254.042 10.1366 253.652C9.98748 253.262 10.0792 252.684 10.3395 252.367C10.6003 252.051 10.817 251.4 10.821 250.918C10.8321 249.62 11.3675 246.974 11.7226 246.462C12.2214 245.742 12.241 243.189 11.7502 242.884C11.5027 242.73 11.3003 241.81 11.3003 240.84C11.3003 239.869 11.088 239.076 10.829 239.076C10.57 239.076 10.4837 238.871 10.6372 238.621C10.7912 238.371 11.1031 238.282 11.331 238.423C12.2277 238.981 11.6839 237.293 10.756 236.639C9.74806 235.929 10.0698 235.731 11.9144 235.929C12.5948 236.001 12.6989 235.811 12.4738 234.907C12.2802 234.131 12.4035 233.717 12.8832 233.532C13.4003 233.332 13.5458 232.686 13.4719 230.911C13.4185 229.615 13.1582 228.407 12.8934 228.226C12.5677 228.004 12.5921 227.895 12.9691 227.891C13.2752 227.887 13.5253 227.38 13.5253 226.765C13.5253 226.149 13.3251 225.645 13.0803 225.645C12.8356 225.645 12.6353 225.322 12.6353 224.926C12.6353 224.509 12.8858 224.303 13.2312 224.437C13.6833 224.611 13.8511 224.007 13.9254 221.937C13.9792 220.435 14.1559 218.994 14.3179 218.733C14.8501 217.877 14.9338 216.981 15.0112 211.32C15.062 207.602 15.2876 205.37 15.6828 204.669C16.0971 203.934 16.1362 203.471 15.8123 203.145C15.4936 202.825 15.4901 202.408 15.802 201.822C16.0521 201.352 16.2003 200.426 16.1313 199.764C16.0624 199.102 16.1687 198.296 16.3676 197.972C16.5666 197.648 16.6111 197.264 16.4664 197.118C16.3218 196.972 16.4068 196.606 16.6556 196.305C16.9729 195.92 16.9217 195.684 16.4847 195.515C15.9787 195.32 15.9551 194.972 16.3596 193.672C16.6338 192.791 17.0093 192.07 17.1945 192.07C17.7814 192.07 17.5572 191.138 16.7833 190.36C16.0842 189.656 16.0842 189.598 16.7833 189.463C17.1945 189.384 17.5305 188.936 17.5305 188.47C17.5305 187.9 17.3115 187.706 16.8629 187.879C16.4958 188.021 16.1954 188.012 16.1954 187.859C16.1954 187.464 17.2096 185.721 17.8473 185.021C18.2314 184.6 18.2607 184.095 17.9492 183.271C17.6782 182.554 17.6693 181.92 17.9252 181.607C18.4547 180.96 18.9527 176.53 18.5228 176.286C18.3444 176.184 18.4708 176.171 18.8036 176.256C19.2535 176.372 19.3328 176.104 19.1116 175.218C18.918 174.441 19.0172 173.892 19.396 173.646C19.796 173.386 19.8285 173.163 19.5005 172.932C19.1619 172.694 19.181 171.505 19.566 168.844C20.0768 165.315 20.1022 164.136 19.7003 162.524C19.6082 162.154 19.776 161.9 20.0733 161.959C20.3857 162.021 20.5063 161.784 20.3594 161.399C20.2197 161.033 20.3269 160.733 20.5979 160.733C20.9019 160.733 21.0906 159.732 21.0906 158.122C21.0906 156.685 21.2405 155.359 21.4243 155.174C21.6077 154.99 21.8026 153.496 21.8573 151.854C21.9116 150.213 22.0411 146.906 22.1448 144.505C22.2485 142.104 22.1586 140.14 21.9454 140.14C21.5405 140.14 22.2547 137.869 22.7874 137.463C24.053 136.499 24.2822 134.041 23.2329 132.685C22.9823 132.361 23.0477 132.069 23.4082 131.902C23.8626 131.69 23.8666 131.58 23.4269 131.373C22.6775 131.021 22.7242 129.853 23.5226 128.966C24.0864 128.339 24.09 128.077 23.5488 127.028C23.2048 126.36 23.1118 125.815 23.3419 125.815C23.8928 125.815 23.8861 120.574 23.3352 120.231C22.8528 119.931 23.236 118.587 23.9382 118.116C24.223 117.925 24.0989 117.687 23.6178 117.501C22.8844 117.218 22.8813 117.144 23.5715 116.376C24.4433 115.408 24.1086 113.28 23.0847 113.28C22.722 113.28 22.4256 113.085 22.4256 112.846C22.4256 112.608 22.7002 112.519 23.0357 112.648C23.3713 112.777 23.7655 112.57 23.912 112.186C24.0779 111.75 23.9329 111.489 23.5243 111.489C22.7153 111.489 22.7144 111.062 23.5217 109.99C23.9088 109.477 24.0179 108.818 23.8096 108.252C23.6254 107.751 23.6227 106.411 23.8034 105.274C23.984 104.137 24.0268 102.754 23.8982 102.2C23.7696 101.646 23.8652 101.193 24.1104 101.193C24.3961 101.193 24.4224 100.592 24.183 99.525C23.9217 98.3588 23.9689 97.7554 24.3414 97.5177C24.7441 97.2598 24.7361 97.1757 24.3085 97.1703C23.9364 97.1658 23.8345 96.7996 24.0099 96.0963C24.1563 95.5099 24.0704 94.2806 23.8194 93.3651C23.5061 92.2244 23.5074 90.9123 23.823 89.1946C24.2297 86.9831 24.1905 86.62 23.4919 86.1065C23.0379 85.7725 22.936 85.5241 23.2524 85.5241C23.6311 85.5241 23.7731 84.8289 23.7046 83.3144C23.6494 82.0994 23.8185 80.8401 24.0811 80.5164C24.5977 79.8789 24.4727 76.4789 23.8723 74.8467C23.6654 74.2844 23.6894 72.6831 23.9266 71.2416C24.4776 67.888 24.15 66.9739 22.5422 67.3799L21.3322 67.6857L22.5996 66.5038C24.4838 64.7476 24.7642 62.7971 23.4954 60.2794C22.6717 58.6436 22.5912 58.2161 23.1083 58.2161C23.8692 58.2161 23.9809 56.8261 23.2769 56.1179C22.9285 55.7673 22.9285 55.5471 23.2769 55.3304C23.9827 54.8912 23.8679 53.4636 23.0615 52.652C22.4256 52.0127 22.4256 51.9487 23.0615 51.9487C23.8261 51.9487 24.0352 50.7722 23.3134 50.5305C23.0664 50.4476 22.8693 48.8799 22.8728 47.0234C22.8764 45.1772 22.8662 43.3646 22.8501 42.9952C22.6392 38.1528 22.451 36.6383 21.84 34.8557C21.4452 33.7029 21.0456 31.871 20.9531 30.785C20.86 29.6989 20.6696 28.6236 20.5294 28.3953C20.3892 28.1674 20.2749 27.0093 20.2749 25.8221C20.2749 23.2117 19.4645 21.062 18.4779 21.0526C18.0476 21.0486 17.9399 20.912 18.2127 20.7168C19.1009 20.0816 18.7048 17.5388 17.5963 16.7576C16.814 16.2065 16.6943 15.9303 17.1228 15.664C17.5892 15.3739 17.5883 15.1773 17.1166 14.6057C16.798 14.2198 16.4905 13.2474 16.4335 12.4452C16.3636 11.4684 16.0232 10.8452 15.402 10.5578C14.6574 10.2131 14.5266 9.86033 14.738 8.76712C14.8831 8.01816 15.1697 7.33815 15.3753 7.25622C15.5809 7.1743 15.6258 6.61426 15.4754 6.01169C15.2106 4.95026 15.2596 4.92519 17.0338 5.21036C18.5798 5.45927 18.8655 5.38585 18.8655 4.73896C18.8655 4.3177 18.6154 4.06298 18.3092 4.17266C17.7289 4.38127 15.3054 3.32566 15.3054 2.86501C15.3054 2.71951 15.7784 2.69131 16.3565 2.80233C17.4477 3.01229 18.4205 2.0198 18.4205 0.696482C18.4205 -0.122311 16.4949 -0.169764 14.8639 0.608738ZM18.9741 1.65942C19.1383 4.13192 21.0247 6.02602 21.6873 4.38351C21.8622 3.94927 22.0077 3.96046 22.3379 4.4341C22.6966 4.94937 22.7981 4.94937 22.9881 4.4341C23.1603 3.96807 23.3708 4.02985 23.8781 4.69419C24.5025 5.51209 24.6097 5.5206 25.6493 4.83566C26.5019 4.27338 26.8766 4.22772 27.2829 4.63645C27.9838 5.34153 30.8092 5.32944 31.0798 4.61988C31.2266 4.23444 31.665 4.40634 32.4869 5.1732C33.9021 6.49249 34.2621 6.5498 34.5611 5.50269C34.6844 5.07158 34.9203 4.39067 35.0854 3.98911C35.4561 3.0875 33.4766 2.25393 30.2133 1.93653C28.9896 1.81745 27.7978 1.539 27.5655 1.3174C27.3332 1.09536 26.7222 0.91405 26.2082 0.91405C25.6942 0.91405 25.0334 0.672307 24.7397 0.376843C24.3245 -0.0408348 24.1994 0.0831721 24.1776 0.936435L24.1491 2.03323L23.7469 1.02597C23.3236 -0.0323288 21.4399 -0.419565 21.569 0.578296C21.8547 2.79204 20.6923 3.45728 20.2005 1.36172C19.768 -0.480896 18.8468 -0.257507 18.9741 1.65942ZM33.996 1.79372C33.996 2.03099 34.3965 2.44106 34.886 2.70474C35.6403 3.11078 35.776 3.04497 35.776 2.27274C35.776 1.66032 35.4845 1.36172 34.886 1.36172C34.3965 1.36172 33.996 1.55601 33.996 1.79372ZM36.5561 2.1841C36.436 2.64654 36.5214 3.3561 36.7461 3.76035C37.0483 4.30293 36.9744 4.49543 36.4658 4.49543C35.6594 4.49543 35.6194 4.70762 36.2152 5.8277C36.6407 6.62724 37.9566 6.63978 39.1136 5.85501C39.9302 5.30124 42.0062 5.38003 42.0062 5.96469C42.0062 6.69215 47.3851 7.76926 47.9881 7.16266C48.6347 6.51219 50.283 6.64963 50.9065 7.4053C51.6474 8.30333 52.2384 8.25408 52.2558 7.29338C52.2691 6.54711 52.298 6.54711 52.861 7.29338C53.2108 7.75672 54.0429 8.07681 54.8987 8.07681H56.3454L55.2948 7.14744C54.7167 6.6362 54.4844 6.33984 54.7781 6.48847C55.3611 6.78393 56.4309 5.15753 56.0557 4.54646C55.681 3.93673 52.8125 3.62605 51.3778 4.04015C49.7401 4.51244 48.2217 4.15923 48.5208 3.37535C48.7878 2.67519 45.6718 2.59461 44.7875 3.2791C44.4244 3.56024 44.0208 3.53427 43.6256 3.20434C43.2927 2.92634 41.8838 2.61789 40.4945 2.51895C39.1052 2.42047 37.6998 2.11515 37.3718 1.84118C36.913 1.45797 36.7243 1.53766 36.5561 2.1841ZM23.0242 2.94782C22.8791 3.3279 22.665 3.54278 22.5484 3.42549C22.4318 3.3082 22.4683 2.99707 22.6299 2.73473C23.0687 2.02025 23.325 2.15903 23.0242 2.94782ZM26.8757 3.15241C26.8757 3.39863 26.7921 3.60008 26.6897 3.60008C26.5874 3.60008 26.1846 3.72319 25.7944 3.87361C25.2755 4.07417 25.1593 3.95419 25.3609 3.42594C25.6595 2.64296 26.8757 2.42315 26.8757 3.15241ZM40.6712 3.15241C40.6712 3.39863 40.5831 3.60008 40.4749 3.60008C40.3668 3.60008 40.1549 3.39863 40.0036 3.15241C39.8523 2.90619 39.9409 2.70474 40.1999 2.70474C40.4589 2.70474 40.6712 2.90619 40.6712 3.15241ZM60.6968 5.26811C60.3296 5.40778 59.8797 5.77577 59.6964 6.08646C59.3075 6.74632 57.5964 6.41773 57.5505 5.67415C57.5216 5.20991 56.7953 6.58561 56.7228 7.241C56.6716 7.70703 58.5442 8.1556 61.0043 8.26662C62.2744 8.32392 63.576 8.58491 63.8969 8.8468C64.9066 9.67231 68.1071 9.44758 69.3505 8.46359C71.0674 7.10491 70.8222 6.32014 68.707 6.40475C67.728 6.44414 66.927 6.67962 66.927 6.92853C66.927 7.17743 66.607 6.92136 66.2163 6.35954C65.6578 5.55775 65.2377 5.39794 64.256 5.61461C63.5533 5.76995 62.8791 5.68355 62.7154 5.41718C62.403 4.90863 61.7648 4.86118 60.6968 5.26811ZM71.9298 7.1743C71.1141 8.48866 71.2067 10.0291 72.0811 9.69156C72.4683 9.54204 72.9258 9.41982 73.0975 9.41982C73.5888 9.41982 73.4322 6.60307 72.9311 6.4343C72.6846 6.35148 72.2338 6.68455 71.9298 7.1743ZM74.7147 7.18146C74.5634 7.42768 74.7521 7.62913 75.1335 7.62913C75.5149 7.62913 75.8272 7.83059 75.8272 8.07681C75.8272 8.32302 76.149 8.52448 76.5424 8.52448C77.0119 8.52448 77.1645 8.28094 76.9874 7.81626C76.8388 7.42678 76.7173 7.02388 76.7173 6.92092C76.7173 6.52875 74.9768 6.75483 74.7147 7.18146ZM84.0836 7.59108C83.9403 7.82432 84.0128 8.13276 84.2447 8.27691C84.4765 8.42106 84.7831 8.34809 84.9264 8.11486C85.0697 7.88162 84.9972 7.57317 84.7653 7.42902C84.5335 7.28487 84.2269 7.35784 84.0836 7.59108ZM78.0523 8.21513C78.0523 8.53746 78.3487 9.19196 78.7114 9.67007C79.2583 10.3908 79.4408 10.4316 79.783 9.90734C80.046 9.50488 80.0104 8.97752 79.6846 8.4524C79.095 7.50289 78.0523 7.35113 78.0523 8.21513ZM82.0574 8.97215C82.0574 9.21837 82.2697 9.41982 82.5287 9.41982C82.7877 9.41982 82.8763 9.21837 82.725 8.97215C82.5737 8.72593 82.3618 8.52448 82.2537 8.52448C82.1456 8.52448 82.0574 8.72593 82.0574 8.97215ZM20.8681 147.303C21.0194 147.549 20.9308 147.751 20.6718 147.751C20.4128 147.751 20.2005 147.549 20.2005 147.303C20.2005 147.057 20.2886 146.855 20.3968 146.855C20.5049 146.855 20.7168 147.057 20.8681 147.303ZM16.1954 164.341C16.1954 164.573 15.9952 164.762 15.7504 164.762C15.5056 164.762 15.3054 164.448 15.3054 164.064C15.3054 163.681 15.5056 163.491 15.7504 163.643C15.9952 163.795 16.1954 164.109 16.1954 164.341ZM7.35033 268.294C6.91065 268.733 6.85992 268.681 7.10112 268.043C7.26844 267.602 7.5172 267.353 7.65427 267.491C7.79133 267.629 7.65471 267.99 7.35033 268.294ZM1.95498 292.994C1.95498 293.103 1.75472 293.316 1.50997 293.468C1.26521 293.62 1.06495 293.531 1.06495 293.27C1.06495 293.01 1.26521 292.796 1.50997 292.796C1.75472 292.796 1.95498 292.885 1.95498 292.994ZM2.84501 294.337C2.84501 294.446 2.64475 294.659 2.39999 294.811C2.15524 294.963 1.95498 294.874 1.95498 294.613C1.95498 294.353 2.15524 294.139 2.39999 294.139C2.64475 294.139 2.84501 294.228 2.84501 294.337Z" fill="white"/>
</svg>
