<svg width="84" height="305" viewBox="0 0 84 305" fill="none" xmlns="http://www.w3.org/2000/svg">
<path fill-rule="evenodd" clip-rule="evenodd" d="M69.3109 304.399C69.9139 304.112 70.7248 303.579 71.1131 303.214C71.5015 302.849 72.3384 302.18 72.973 301.725C73.8596 301.091 74.0328 300.723 73.7215 300.139C73.4985 299.72 73.0279 298.536 72.6752 297.508C72.1136 295.87 72.1136 295.669 72.6761 295.886C73.4347 296.179 73.1221 295.508 71.8225 294.057C71.3388 293.517 70.9144 292.622 70.8796 292.069C70.7758 290.41 70.1623 287.63 69.5229 285.92C69.1922 285.037 69.0339 284.201 69.1711 284.063C69.6227 283.609 68.894 281.653 67.7757 280.318C66.8754 279.243 66.7958 278.959 67.3359 278.751C68.1319 278.444 68.2203 277.143 67.4454 277.143C67.1116 277.143 66.9084 276.579 66.9282 275.707C66.9462 274.918 66.5856 273.628 66.1265 272.841C65.6674 272.054 65.3499 270.961 65.4207 270.41C65.4915 269.861 65.3872 269.149 65.1889 268.828C64.9906 268.509 64.9457 268.129 65.0886 267.985C65.2316 267.842 65.1282 267.457 64.8591 267.131C64.4989 266.695 64.4998 266.538 64.863 266.538C65.4844 266.538 65.5183 264.015 64.8995 263.807C64.597 263.706 64.6427 263.059 65.035 261.893C65.3604 260.924 65.5816 259.435 65.5258 258.584C65.4699 257.734 65.4088 256.768 65.3903 256.438C65.3666 256.014 64.9998 255.918 64.1471 256.112L62.9377 256.386L64.257 255.234C65.0688 254.525 65.374 254.003 65.0504 253.874C64.5455 253.674 64.6251 249.574 65.1634 248.026C65.2812 247.687 65.0293 247.023 64.6031 246.55C63.863 245.728 63.8652 245.664 64.655 245.083C65.8235 244.225 65.7457 241.341 64.5138 239.849C64.0314 239.265 64.0301 239.02 64.5059 238.444C65.1933 237.612 65.4536 229.091 64.8041 228.688C64.5407 228.524 64.5499 228.323 64.8283 228.15C65.228 227.902 65.5121 225.619 65.3991 223.566C65.3758 223.14 65.0596 222.792 64.6968 222.792C64.334 222.792 64.0371 222.494 64.0371 222.13C64.0371 221.765 64.334 221.467 64.6968 221.467C65.5227 221.467 65.5746 219.755 64.7579 219.441C63.848 219.09 63.7623 213.071 64.6669 213.071C65.0746 213.071 65.2316 212.817 65.0759 212.408C64.9365 212.044 65.0354 211.745 65.2958 211.745C65.8402 211.745 65.4356 210.381 64.7289 209.834C64.4008 209.58 64.425 209.4 64.8067 209.245C65.4981 208.963 65.5319 207.769 64.8485 207.769C64.5499 207.769 64.6488 207.426 65.0891 206.937C65.7632 206.189 65.7703 206.038 65.1612 205.426C64.7306 204.994 64.6598 204.688 64.9659 204.585C65.2927 204.476 65.2236 203.886 64.7522 202.751C64.1497 201.303 64.1396 200.95 64.6739 200.116C65.0134 199.585 65.4268 198.406 65.5926 197.495C65.8631 196.008 65.7989 195.838 64.9655 195.838C63.9496 195.838 63.8313 195.524 64.4677 194.512C64.7658 194.038 64.6858 193.78 64.1871 193.604C63.5542 193.381 63.556 193.291 64.2064 192.638C64.6009 192.241 64.7425 191.805 64.5218 191.668C63.9316 191.302 64.4769 189.652 65.188 189.652C65.9559 189.652 65.9506 189.565 65.0715 187.712C64.3982 186.294 64.3982 186.132 65.0706 185.457C65.6405 184.884 65.692 184.537 65.3116 183.823C64.9439 183.133 64.9545 182.995 65.3564 183.244C65.7632 183.497 65.7676 183.354 65.3758 182.618C65.0965 182.094 65.009 181.225 65.1814 180.687C65.3538 180.149 65.5434 179.119 65.6018 178.398C65.6608 177.677 65.9264 177.014 66.1925 176.926C66.8856 176.693 66.7888 175.927 65.948 174.994C65.2703 174.242 65.2711 174.186 65.9563 174.186C66.5219 174.186 66.6287 173.93 66.4168 173.081C66.2466 172.401 66.3279 171.977 66.6283 171.977C66.8961 171.977 67.1156 171.38 67.1156 170.651C67.1156 169.922 66.948 169.325 66.7435 169.325C66.5386 169.325 66.7299 168.281 67.1683 167.005C67.9903 164.613 67.8843 161.911 66.9423 161.253C66.6103 161.021 66.707 160.72 67.2457 160.305C67.8087 159.872 67.9547 159.374 67.7541 158.571C67.5993 157.952 67.6209 157.204 67.8021 156.909C67.9832 156.615 68.1715 155.171 68.2203 153.701C68.2713 152.165 68.5224 150.958 68.8118 150.861C69.0884 150.769 69.3145 150.224 69.3145 149.651C69.3145 149.078 69.4987 148.495 69.7234 148.355C70.1703 148.078 70.1017 146.387 69.6113 145.589C69.442 145.314 69.5511 144.542 69.8536 143.875C70.2969 142.897 70.2943 142.625 69.8409 142.473C69.4152 142.331 69.3998 142.137 69.778 141.679C70.0533 141.346 70.3567 140.122 70.4526 138.96C70.727 135.64 70.9544 134.288 71.4549 132.996C71.8185 132.058 71.7781 131.653 71.2706 131.143C70.7217 130.592 70.7156 130.436 71.2323 130.134C72.2196 129.557 72.3595 126.479 71.5037 124.166C70.7666 122.174 70.7679 122.059 71.5358 121.361C72.5917 120.401 73.4251 118.068 72.7117 118.068C72.429 118.068 72.637 117.758 73.1744 117.38C74.2879 116.596 74.4788 115.416 73.4923 115.416C72.6528 115.416 72.659 114.656 73.5126 113.012C73.8969 112.271 74.2083 110.465 74.2365 108.814C74.2716 106.715 74.4792 105.771 74.9885 105.391C75.6226 104.917 75.6068 104.803 74.8236 104.22C74.0922 103.676 74.035 103.411 74.4594 102.536C75.2924 100.818 75.5483 99.0668 74.9665 99.0668C74.6797 99.0668 74.5755 98.936 74.7347 98.776C74.8939 98.6161 74.7857 98.1967 74.4946 97.8446C74.0729 97.3338 74.1182 97.0912 74.7184 96.6506C75.1323 96.3462 75.4713 95.7828 75.4713 95.3988C75.4713 95.0143 75.6358 94.5981 75.8364 94.4735C76.2555 94.2132 76.1578 91.0648 75.6714 89.1661C75.4357 88.2448 75.5268 87.745 75.9938 87.3986C76.8716 86.7468 77.3233 83.7668 76.6526 83.0519C76.0246 82.3833 75.8522 80.9498 76.3997 80.9498C76.6148 80.9498 76.7907 80.6516 76.7907 80.287C76.7907 79.9225 77.0924 79.6242 77.4609 79.6242C78.0335 79.6242 78.1061 78.8509 77.9596 74.3111C77.8659 71.3885 77.9337 68.9078 78.1109 68.7978C78.6127 68.4858 79.0714 64.8001 79.2033 60.0194C79.2851 57.0518 79.5041 55.5476 79.8898 55.3081C80.2632 55.0766 80.4294 54.0771 80.3784 52.3772C80.3353 50.9521 80.5583 49.303 80.8767 48.6928C81.276 47.9266 81.3318 47.182 81.0592 46.2625C80.8428 45.5334 80.5037 44.3898 80.3054 43.7217C80.0974 43.0191 80.115 42.5065 80.3472 42.5065C80.5679 42.5065 80.7487 41.9343 80.7487 41.2348C80.7487 40.5357 81.0693 39.6962 81.4607 39.3696C82.0302 38.8946 82.1199 38.2645 81.9075 36.2226C81.6907 34.1391 81.7619 33.669 82.2945 33.669C83.0289 33.669 83.1842 32.5422 82.5078 32.1224C81.8165 31.6929 81.9941 30.1348 82.7681 29.8361C83.3231 29.6223 83.4102 29.1746 83.1868 27.6798C83.021 26.5698 83.0883 25.6803 83.3495 25.5177C83.6411 25.3365 83.6481 24.8584 83.3706 24.124C82.8359 22.7117 82.831 22.0555 83.357 22.3821C84.1785 22.8925 84.226 21.8262 83.4234 20.8961C82.6428 19.992 82.6252 18.2033 83.3966 18.2033C83.821 18.2033 83.3865 14.5352 82.926 14.2264C82.7448 14.1049 82.5271 13.5083 82.4423 12.9007C82.3284 12.0859 82.057 11.8301 81.4084 11.9251C80.692 12.0298 80.6502 11.9719 81.1845 11.6122C81.7558 11.2273 81.7303 10.9839 80.9866 9.71569C80.5169 8.91589 79.7768 7.87571 79.3414 7.40422C78.906 6.93318 78.5498 6.40205 78.5498 6.22442C78.5498 6.04634 77.9429 5.76707 77.2006 5.60314C76.4586 5.43964 75.7449 5.02606 75.6143 4.68448C75.4669 4.29784 74.7303 4.0632 73.6652 4.0632C72.7236 4.0632 71.9531 3.86436 71.9531 3.62133C71.9531 3.02965 69.8835 3.05396 69.5168 3.65005C69.325 3.96157 68.9657 3.88337 68.4547 3.41851C68.018 3.02126 67.3614 2.84008 66.9427 3.00136C66.506 3.16972 65.8371 2.95364 65.309 2.47332C64.3599 1.61033 62.9795 1.41239 61.7551 1.96385C61.3466 2.14768 60.8896 2.09861 60.7397 1.85514C60.3162 1.16625 59.4542 1.32887 58.4264 2.29084C57.5473 3.11361 56.1211 3.10434 56.1211 2.27582C56.1211 2.07388 55.775 1.89314 55.3515 1.87369C46.6413 1.47954 43.6807 1.45745 44.1842 1.79063C44.5514 2.03366 44.6117 2.2904 44.3403 2.45875C44.0976 2.60943 43.7893 2.44418 43.6547 2.09156C43.4938 1.67001 42.762 1.44862 41.5196 1.44509C35.492 1.42874 34.4264 1.36466 33.7025 0.975807C33.1233 0.663842 32.7531 0.731014 32.3489 1.22061C32.0428 1.59091 31.5331 1.79417 31.216 1.67177C30.899 1.54937 30.3369 1.75352 29.9671 2.12514C29.5972 2.49675 29.2933 2.63726 29.292 2.43753C29.2902 2.23824 28.6833 1.72831 27.9436 1.30543C26.6947 0.590919 26.499 0.586963 25.2249 1.24934C24.1769 1.79373 23.6672 1.84674 23.0722 1.47335C22.6439 1.20425 22.0084 1.09422 21.6605 1.22811C21.3127 1.36244 20.8971 1.25993 20.7374 1.00011C20.4164 0.47825 16.5076 0.434952 14.782 0.934273C14.146 1.11809 12.7555 0.976679 11.4836 0.598874C9.64667 0.0531554 6.90245 -0.101051 1.90481 0.0611181C-0.746613 0.146842 2.1335 3.75522 5.25329 4.25631C6.21024 4.41008 7.53926 4.92662 8.20684 5.40429C9.53365 6.35344 10.3842 6.52004 10.3842 5.83071C10.3842 5.19618 11.4071 5.28588 12.8628 6.04901C13.5554 6.41179 14.4358 6.71005 14.8185 6.71182C15.2015 6.71315 15.6633 6.86338 15.8449 7.04587C16.0261 7.22793 16.7025 7.42191 17.3472 7.47626C17.9923 7.53061 19.3609 7.70073 20.3891 7.85406C21.9736 8.09046 22.2582 8.01666 22.2582 7.36976C22.2582 6.81962 22.4121 6.72905 22.8079 7.04455C24.6607 8.52219 29.7344 8.72986 29.7344 7.32822C29.7344 6.51296 30.1786 6.55142 30.8119 7.42192C31.0951 7.81121 31.9513 8.17884 32.7148 8.23938C33.4782 8.29992 34.4211 8.61452 34.8108 8.9393C35.2664 9.31932 35.6244 9.37102 35.8148 9.08424C35.978 8.839 36.4577 8.51026 36.8808 8.35295C37.3043 8.19608 37.6504 7.76348 37.6504 7.39098C37.6504 7.01892 37.8483 6.71447 38.0902 6.71447C38.3321 6.71447 38.53 7.311 38.53 8.0401C38.53 9.55839 39.0656 9.69094 41.0956 8.6733C41.8551 8.2924 42.6885 8.11255 42.9471 8.27296C43.576 8.66358 45.5286 8.97643 46.8858 8.90441C47.4905 8.87215 48.2821 8.85935 48.6449 8.87614C49.5315 8.91635 56.0978 8.82665 57.294 8.75772C58.3336 8.69806 59.2739 8.0401 58.32 8.0401C57.9976 8.0401 57.8442 7.92873 57.9796 7.79308C58.1151 7.65698 58.9863 7.95525 59.9155 8.45589C62.1008 9.63261 62.8897 9.63306 62.5837 8.45678C62.4051 7.77055 62.4807 7.65919 62.8915 8.00121C63.1905 8.25087 64.6097 8.59155 66.0451 8.75858C67.4806 8.92517 69.0805 9.33877 69.6003 9.67769C70.3651 10.1752 70.5845 10.1832 70.7473 9.71922C70.9025 9.27514 71.2688 9.32993 72.3608 9.96093C73.1374 10.4103 73.8899 10.66 74.0333 10.5164C74.1762 10.3728 74.5694 10.6516 74.9071 11.1359C75.2449 11.6206 75.7572 12.0232 76.0461 12.0307C76.8144 12.051 77.9249 13.7863 78.256 15.4835C78.4979 16.723 78.4029 16.9991 77.6676 17.1922C76.573 17.4799 76.5734 17.7875 77.6702 19.7498C78.154 20.615 78.5357 21.566 78.519 21.862C78.5019 22.1585 78.318 22.0034 78.11 21.5173L77.7322 20.6336L77.6342 21.5173C77.5805 22.0034 77.5119 22.5999 77.4816 22.843C77.4517 23.086 77.2357 23.5831 77.0022 23.9477C76.7687 24.3122 76.5391 25.6047 76.4925 26.8199C76.4455 28.035 76.2766 29.7513 76.1169 30.6342C75.9375 31.6266 76.011 32.3531 76.3087 32.5382C76.9626 32.9443 76.9191 33.669 76.241 33.6694C75.8408 33.6698 75.66 35.0145 75.5769 38.6105C75.4881 42.4588 75.3025 43.7287 74.7391 44.3544C74.2237 44.9267 74.1784 45.1578 74.5812 45.1578C75.1565 45.1578 75.1384 45.3942 74.2175 49.892C73.973 51.0864 73.9941 51.8067 74.2769 51.9013C74.561 51.9967 74.5395 52.3842 74.2167 52.99C73.9409 53.5079 73.8358 54.2463 73.9827 54.6316C74.13 55.0169 74.0394 55.5874 73.7822 55.8994C73.5244 56.2113 73.3103 56.8547 73.3063 57.3297C73.2953 58.6112 72.7663 61.2227 72.4153 61.7282C71.9223 62.4387 71.903 64.9587 72.3881 65.2601C72.6326 65.4121 72.8327 66.3197 72.8327 67.2777C72.8327 68.2357 73.0425 69.0191 73.2984 69.0191C73.5544 69.0191 73.6397 69.2211 73.4879 69.4681C73.3358 69.7151 73.0275 69.803 72.8023 69.6629C71.9162 69.1128 72.4536 70.7791 73.3705 71.4243C74.3666 72.1255 74.0487 72.3204 72.2258 72.1255C71.5534 72.054 71.4505 72.2417 71.673 73.1334C71.8643 73.8997 71.7425 74.3084 71.2684 74.4913C70.7574 74.6884 70.6136 75.3265 70.6866 77.0781C70.7393 78.3569 70.9966 79.5495 71.2583 79.728C71.5802 79.9477 71.556 80.0546 71.1835 80.0594C70.8809 80.063 70.6338 80.5632 70.6338 81.1708C70.6338 81.7784 70.8317 82.2755 71.0736 82.2755C71.3154 82.2755 71.5133 82.5949 71.5133 82.9856C71.5133 83.3974 71.2658 83.6002 70.9245 83.4685C70.4777 83.2962 70.3119 83.8932 70.2384 85.9364C70.1852 87.4185 70.0106 88.8413 69.8505 89.0985C69.3246 89.9429 69.2419 90.828 69.1654 96.4155C69.1152 100.085 68.8923 102.289 68.5017 102.981C68.0923 103.706 68.0536 104.163 68.3738 104.485C68.6886 104.801 68.6922 105.212 68.3839 105.79C68.1367 106.254 67.9903 107.169 68.0584 107.822C68.1266 108.475 68.0215 109.271 67.8249 109.591C67.6283 109.911 67.5844 110.29 67.7273 110.434C67.8702 110.578 67.7862 110.939 67.5404 111.237C67.2268 111.616 67.2774 111.849 67.7093 112.016C68.2093 112.208 68.2326 112.552 67.8328 113.835C67.5619 114.704 67.1908 115.416 67.0078 115.416C66.4278 115.416 66.6494 116.336 67.4142 117.105C68.1051 117.799 68.1051 117.856 67.4142 117.989C67.0078 118.068 66.6758 118.509 66.6758 118.97C66.6758 119.533 66.8922 119.724 67.3355 119.553C67.6983 119.413 67.9951 119.422 67.9951 119.573C67.9951 119.963 66.9929 121.683 66.3627 122.374C65.9831 122.789 65.9541 123.288 66.262 124.101C66.5298 124.809 66.5386 125.435 66.2857 125.744C65.7624 126.382 65.2703 130.755 65.6951 130.996C65.8714 131.097 65.7465 131.11 65.4176 131.026C64.973 130.912 64.8947 131.175 65.1133 132.05C65.3046 132.817 65.2065 133.359 64.8322 133.602C64.4369 133.858 64.4048 134.079 64.7289 134.306C65.0636 134.542 65.0446 135.715 64.6642 138.342C64.1594 141.825 64.1343 142.989 64.5314 144.58C64.6225 144.945 64.4567 145.196 64.1629 145.138C63.8542 145.077 63.735 145.31 63.8801 145.69C64.0182 146.052 63.9122 146.348 63.6444 146.348C63.344 146.348 63.1576 147.335 63.1576 148.925C63.1576 150.343 63.0094 151.652 62.8277 151.834C62.6465 152.016 62.4539 153.491 62.3998 155.111C62.3462 156.732 62.2182 159.996 62.1157 162.366C62.0133 164.735 62.1021 166.674 62.3127 166.674C62.7129 166.674 62.0071 168.916 61.4807 169.316C60.23 170.268 60.0035 172.694 61.0405 174.033C61.2881 174.352 61.2234 174.64 60.8672 174.806C60.4182 175.014 60.4142 175.124 60.8487 175.327C61.5893 175.675 61.5431 176.828 60.7542 177.704C60.197 178.323 60.1935 178.581 60.7282 179.617C61.0682 180.275 61.1601 180.814 60.9327 180.814C60.3883 180.814 60.3949 185.987 60.9393 186.326C61.416 186.622 61.0374 187.948 60.3434 188.413C60.062 188.601 60.1847 188.836 60.6601 189.02C61.3848 189.299 61.3879 189.373 60.7058 190.13C59.8443 191.086 60.175 193.187 61.1869 193.187C61.5453 193.187 61.8382 193.379 61.8382 193.615C61.8382 193.85 61.5669 193.938 61.2353 193.81C60.9037 193.682 60.5141 193.887 60.3694 194.266C60.2053 194.697 60.3487 194.954 60.7524 194.954C61.5519 194.954 61.5528 195.375 60.7551 196.434C60.3724 196.94 60.2647 197.59 60.4705 198.149C60.6526 198.644 60.6552 199.967 60.4767 201.089C60.2981 202.211 60.2559 203.576 60.383 204.123C60.5101 204.67 60.4155 205.117 60.1732 205.117C59.8909 205.117 59.8649 205.71 60.1015 206.763C60.3597 207.914 60.3131 208.51 59.945 208.745C59.547 208.999 59.5549 209.082 59.9775 209.088C60.3452 209.092 60.4459 209.453 60.2726 210.148C60.1279 210.726 60.2128 211.94 60.4608 212.844C60.7704 213.969 60.7691 215.265 60.4573 216.96C60.0554 219.143 60.0941 219.501 60.7845 220.008C61.2331 220.338 61.3338 220.583 61.0211 220.583C60.6469 220.583 60.5066 221.269 60.5743 222.764C60.6288 223.963 60.4617 225.206 60.2022 225.526C59.6917 226.155 59.8152 229.511 60.4085 231.122C60.613 231.677 60.5893 233.258 60.3549 234.681C59.8104 237.991 60.1341 238.893 61.723 238.492L62.9188 238.19L61.6663 239.357C59.8042 241.091 59.5272 243.016 60.781 245.501C61.595 247.116 61.6746 247.538 61.1636 247.538C60.4116 247.538 60.3012 248.91 60.9969 249.609C61.3413 249.955 61.3413 250.172 60.9969 250.386C60.2994 250.819 60.4129 252.228 61.2098 253.03C61.8382 253.661 61.8382 253.724 61.2098 253.724C60.4542 253.724 60.2475 254.885 60.9609 255.124C61.2049 255.205 61.3998 256.753 61.3962 258.585C61.3927 260.408 61.4028 262.197 61.4187 262.561C61.6271 267.341 61.8132 268.836 62.417 270.596C62.8071 271.733 63.202 273.542 63.2935 274.614C63.3854 275.686 63.5736 276.747 63.7121 276.972C63.8506 277.197 63.9637 278.34 63.9637 279.512C63.9637 282.089 64.7645 284.211 65.7395 284.22C66.1648 284.224 66.2712 284.359 66.0016 284.551C65.1238 285.178 65.5152 287.688 66.6107 288.459C67.3838 289.003 67.5021 289.276 67.0786 289.539C66.6177 289.825 66.6186 290.019 67.0848 290.583C67.3997 290.964 67.7035 291.924 67.7598 292.716C67.8289 293.68 68.1653 294.295 68.7792 294.579C69.515 294.919 69.6443 295.267 69.4354 296.346C69.292 297.086 69.0088 297.757 68.8056 297.838C68.6025 297.919 68.558 298.471 68.7067 299.066C68.9683 300.114 68.92 300.139 67.1666 299.857C65.6388 299.611 65.3564 299.684 65.3564 300.322C65.3564 300.738 65.6036 300.99 65.9062 300.881C66.4796 300.675 68.8747 301.717 68.8747 302.172C68.8747 302.316 68.4072 302.344 67.8359 302.234C66.7576 302.027 65.7962 303.006 65.7962 304.313C65.7962 305.121 67.6991 305.168 69.3109 304.399ZM65.2491 303.362C65.0869 300.922 63.2226 299.052 62.5678 300.673C62.395 301.102 62.2512 301.091 61.9249 300.623C61.5704 300.115 61.4701 300.115 61.2823 300.623C61.1121 301.083 60.9041 301.022 60.4028 300.367C59.7858 299.559 59.6798 299.551 58.6525 300.227C57.8099 300.782 57.4396 300.827 57.038 300.424C56.3454 299.728 53.5532 299.74 53.2859 300.44C53.1407 300.82 52.7076 300.651 51.8953 299.894C50.4968 298.592 50.141 298.535 49.8455 299.569C49.7237 299.994 49.4906 300.666 49.3274 301.063C48.9611 301.952 50.9172 302.775 54.1421 303.089C55.3515 303.206 56.5292 303.481 56.7588 303.7C56.9883 303.919 57.5922 304.098 58.1001 304.098C58.6081 304.098 59.2611 304.336 59.5514 304.628C59.9617 305.04 60.0853 304.918 60.1068 304.076L60.135 302.993L60.5325 303.987C60.9508 305.032 62.8123 305.414 62.6848 304.429C62.4025 302.244 63.5512 301.587 64.0371 303.656C64.4646 305.475 65.3749 305.254 65.2491 303.362ZM50.404 303.229C50.404 302.995 50.0082 302.591 49.5244 302.33C48.779 301.929 48.6449 301.994 48.6449 302.757C48.6449 303.361 48.9329 303.656 49.5244 303.656C50.0082 303.656 50.404 303.464 50.404 303.229ZM47.8739 302.844C47.9927 302.388 47.9083 301.687 47.6862 301.288C47.3876 300.753 47.4606 300.563 47.9632 300.563C48.7601 300.563 48.7997 300.353 48.2108 299.248C47.7904 298.459 46.49 298.446 45.3465 299.221C44.5396 299.767 42.488 299.69 42.488 299.113C42.488 298.394 37.1724 297.331 36.5765 297.93C35.9375 298.572 34.3086 298.436 33.6924 297.691C32.9602 296.804 32.3762 296.853 32.359 297.801C32.3458 298.538 32.3172 298.538 31.7609 297.801C31.4153 297.344 30.5929 297.028 29.7472 297.028H28.3175L29.3558 297.945C29.927 298.45 30.1566 298.742 29.8664 298.596C29.2902 298.304 28.233 299.909 28.6037 300.512C28.974 301.114 31.8088 301.421 33.2267 301.012C34.8451 300.546 36.3456 300.895 36.0501 301.668C35.7862 302.359 38.8655 302.439 39.7394 301.763C40.0982 301.486 40.4971 301.511 40.8876 301.837C41.2166 302.112 42.6089 302.416 43.9819 302.514C45.3549 302.611 46.7437 302.912 47.0678 303.183C47.5212 303.561 47.7077 303.482 47.8739 302.844ZM61.2467 302.09C61.3901 301.715 61.6016 301.503 61.7168 301.619C61.8321 301.735 61.796 302.042 61.6364 302.301C61.2027 303.006 60.9494 302.869 61.2467 302.09ZM57.4404 301.888C57.4404 301.645 57.5231 301.447 57.6243 301.447C57.7254 301.447 58.1234 301.325 58.5091 301.177C59.0219 300.979 59.1367 301.097 58.9375 301.618C58.6424 302.391 57.4404 302.608 57.4404 301.888ZM43.8073 301.888C43.8073 301.645 43.8944 301.447 44.0013 301.447C44.1081 301.447 44.3175 301.645 44.467 301.888C44.6165 302.131 44.529 302.33 44.273 302.33C44.0171 302.33 43.8073 302.131 43.8073 301.888ZM24.0173 299.8C24.3801 299.662 24.8247 299.299 25.0059 298.992C25.3903 298.341 27.0812 298.665 27.1265 299.399C27.1551 299.858 27.8728 298.5 27.9445 297.853C27.9951 297.393 26.1445 296.95 23.7134 296.84C22.4583 296.784 21.1719 296.526 20.8549 296.268C19.857 295.453 16.6941 295.675 15.4654 296.646C13.7687 297.987 14.011 298.762 16.1013 298.678C17.0688 298.639 17.8604 298.407 17.8604 298.161C17.8604 297.915 18.1766 298.168 18.5627 298.723C19.1147 299.514 19.5298 299.672 20.5 299.458C21.1944 299.305 21.8606 299.39 22.0225 299.653C22.3312 300.155 22.9618 300.202 24.0173 299.8ZM12.9164 297.919C13.7225 296.621 13.6311 295.101 12.7669 295.434C12.3843 295.581 11.9322 295.702 11.7624 295.702C11.2769 295.702 11.4317 298.482 11.9269 298.649C12.1706 298.731 12.616 298.402 12.9164 297.919ZM10.1643 297.912C10.3138 297.668 10.1273 297.47 9.75045 297.47C9.37356 297.47 9.06484 297.271 9.06484 297.028C9.06484 296.785 8.74688 296.586 8.35812 296.586C7.89415 296.586 7.74331 296.826 7.91834 297.285C8.06523 297.669 8.18528 298.067 8.18528 298.169C8.18528 298.556 9.90526 298.333 10.1643 297.912ZM0.905632 297.507C1.04724 297.277 0.975557 296.973 0.746433 296.83C0.517308 296.688 0.214309 296.76 0.0727004 296.99C-0.0689082 297.22 0.00277543 297.525 0.2319 297.667C0.461024 297.809 0.764024 297.737 0.905632 297.507ZM6.86595 296.891C6.86595 296.573 6.57306 295.927 6.21464 295.455C5.67416 294.744 5.49384 294.703 5.15565 295.221C4.89574 295.618 4.93093 296.139 5.25284 296.657C5.83555 297.594 6.86595 297.744 6.86595 296.891ZM2.90795 296.144C2.90795 295.901 2.69818 295.702 2.44223 295.702C2.18627 295.702 2.09875 295.901 2.24828 296.144C2.3978 296.387 2.60713 296.586 2.714 296.586C2.82087 296.586 2.90795 296.387 2.90795 296.144ZM63.3774 159.604C63.2279 159.361 63.3154 159.162 63.5714 159.162C63.8273 159.162 64.0371 159.361 64.0371 159.604C64.0371 159.847 63.95 160.046 63.8432 160.046C63.7363 160.046 63.527 159.847 63.3774 159.604ZM67.9951 142.787C67.9951 142.558 68.193 142.371 68.4349 142.371C68.6768 142.371 68.8747 142.681 68.8747 143.06C68.8747 143.438 68.6768 143.626 68.4349 143.475C68.193 143.325 67.9951 143.015 67.9951 142.787ZM76.7361 40.1791C77.1707 39.7461 77.2208 39.7969 76.9824 40.4266C76.8171 40.8623 76.5712 41.1075 76.4358 40.9714C76.3003 40.8358 76.4353 40.4792 76.7361 40.1791ZM82.068 15.799C82.068 15.6916 82.2659 15.4813 82.5078 15.3311C82.7497 15.1808 82.9476 15.2688 82.9476 15.5259C82.9476 15.7831 82.7497 15.9939 82.5078 15.9939C82.2659 15.9939 82.068 15.9064 82.068 15.799ZM81.1885 14.4734C81.1885 14.366 81.3864 14.1557 81.6282 14.0054C81.8701 13.8552 82.068 13.9431 82.068 14.2003C82.068 14.4575 81.8701 14.6683 81.6282 14.6683C81.3864 14.6683 81.1885 14.5808 81.1885 14.4734Z" fill="white"/>
</svg>
